<svg width="16" height="17" viewBox="0 0 16 17" fill="none" xmlns="http://www.w3.org/2000/svg">
<path d="M8 2.38525C6.71442 2.38525 5.45772 2.76647 4.3888 3.4807C3.31988 4.19493 2.48676 5.21009 1.99479 6.39781C1.50282 7.58553 1.37409 8.89246 1.6249 10.1533C1.8757 11.4142 2.49477 12.5724 3.40381 13.4814C4.31285 14.3905 5.47104 15.0096 6.73192 15.2604C7.99279 15.5112 9.29973 15.3824 10.4874 14.8905C11.6752 14.3985 12.6903 13.5654 13.4046 12.4965C14.1188 11.4275 14.5 10.1708 14.5 8.88525C14.4982 7.16191 13.8128 5.50966 12.5942 4.29107C11.3756 3.07248 9.72335 2.38707 8 2.38525ZM8 14.3853C6.91221 14.3853 5.84884 14.0627 4.94437 13.4583C4.0399 12.854 3.33495 11.995 2.91867 10.99C2.50238 9.98502 2.39347 8.87915 2.60568 7.81226C2.8179 6.74536 3.34173 5.76536 4.11092 4.99617C4.8801 4.22698 5.86011 3.70315 6.92701 3.49093C7.9939 3.27872 9.09977 3.38763 10.1048 3.80392C11.1098 4.2202 11.9687 4.92515 12.5731 5.82962C13.1774 6.73409 13.5 7.79746 13.5 8.88525C13.4983 10.3434 12.9184 11.7414 11.8873 12.7725C10.8562 13.8036 9.45819 14.3836 8 14.3853ZM12 8.88525C12 9.01786 11.9473 9.14504 11.8536 9.23881C11.7598 9.33258 11.6326 9.38525 11.5 9.38525H8C7.86739 9.38525 7.74022 9.33258 7.64645 9.23881C7.55268 9.14504 7.5 9.01786 7.5 8.88525V5.38525C7.5 5.25265 7.55268 5.12547 7.64645 5.0317C7.74022 4.93793 7.86739 4.88525 8 4.88525C8.13261 4.88525 8.25979 4.93793 8.35356 5.0317C8.44732 5.12547 8.5 5.25265 8.5 5.38525V8.38525H11.5C11.6326 8.38525 11.7598 8.43793 11.8536 8.5317C11.9473 8.62547 12 8.75265 12 8.88525Z" fill="#5A5858"/>
</svg>
