<svg width="184" height="177" viewBox="0 0 184 177" fill="none" xmlns="http://www.w3.org/2000/svg">
<g clip-path="url(#clip0_132_260)">
<path d="M179.02 128.32C180.46 128.32 181.63 129.5 181.63 130.95C181.63 132.4 180.46 133.58 179.02 133.58C177.58 133.58 176.41 132.4 176.41 130.95C176.41 129.5 177.58 128.32 179.02 128.32Z" fill="#CDAE27"/>
<path d="M134.36 133.58C132.918 133.58 131.75 132.403 131.75 130.95C131.75 129.498 132.918 128.32 134.36 128.32C135.801 128.32 136.97 129.498 136.97 130.95C136.97 132.403 135.801 133.58 134.36 133.58Z" fill="#CDAE27"/>
<path d="M156.69 128.32C158.13 128.32 159.3 129.5 159.3 130.95C159.3 132.4 158.13 133.58 156.69 133.58C155.25 133.58 154.08 132.4 154.08 130.95C154.08 129.5 155.25 128.32 156.69 128.32Z" fill="#CDAE27"/>
<path d="M157.06 106.94C158.5 106.94 159.67 108.12 159.67 109.57C159.67 111.02 158.5 112.2 157.06 112.2C155.62 112.2 154.45 111.02 154.45 109.57C154.45 108.12 155.62 106.94 157.06 106.94Z" fill="#CDAE27"/>
<path d="M179.39 106.94C180.83 106.94 182 108.12 182 109.57C182 111.02 180.83 112.2 179.39 112.2C177.95 112.2 176.78 111.02 176.78 109.57C176.78 108.12 177.95 106.94 179.39 106.94Z" fill="#CDAE27"/>
<path d="M112.4 106.94C113.84 106.94 115.01 108.12 115.01 109.57C115.01 111.02 113.84 112.2 112.4 112.2C110.96 112.2 109.79 111.02 109.79 109.57C109.79 108.12 110.96 106.94 112.4 106.94Z" fill="#CDAE27"/>
<path d="M134.73 106.94C136.17 106.94 137.34 108.12 137.34 109.57C137.34 111.02 136.17 112.2 134.73 112.2C133.29 112.2 132.12 111.02 132.12 109.57C132.12 108.12 133.29 106.94 134.73 106.94Z" fill="#CDAE27"/>
<path d="M179.02 171.1C180.46 171.1 181.63 172.28 181.63 173.73C181.63 175.18 180.46 176.36 179.02 176.36C177.58 176.36 176.41 175.18 176.41 173.73C176.41 172.28 177.58 171.1 179.02 171.1Z" fill="#CDAE27"/>
<path d="M157.06 149.71C158.5 149.71 159.67 150.89 159.67 152.34C159.67 153.79 158.5 154.97 157.06 154.97C155.62 154.97 154.45 153.79 154.45 152.34C154.45 150.89 155.62 149.71 157.06 149.71Z" fill="#CDAE27"/>
<path d="M179.39 149.71C180.83 149.71 182 150.89 182 152.34C182 153.79 180.83 154.97 179.39 154.97C177.95 154.97 176.78 153.79 176.78 152.34C176.78 150.89 177.95 149.71 179.39 149.71Z" fill="#CDAE27"/>
<path d="M90.4398 85.55C91.8798 85.55 93.0498 86.73 93.0498 88.18C93.0498 89.63 91.8798 90.81 90.4398 90.81C88.9998 90.81 87.8298 89.63 87.8298 88.18C87.8298 86.73 88.9998 85.55 90.4398 85.55Z" fill="#CDAE27"/>
<path d="M135.1 85.55C136.54 85.55 137.71 86.73 137.71 88.18C137.71 89.63 136.54 90.81 135.1 90.81C133.66 90.81 132.49 89.63 132.49 88.18C132.49 86.73 133.66 85.55 135.1 85.55Z" fill="#CDAE27"/>
<path d="M112.77 90.81C111.328 90.81 110.16 89.6326 110.16 88.18C110.16 86.7275 111.328 85.55 112.77 85.55C114.211 85.55 115.38 86.7275 115.38 88.18C115.38 89.6326 114.211 90.81 112.77 90.81Z" fill="#CDAE27"/>
<path d="M157.44 85.55C158.88 85.55 160.05 86.73 160.05 88.18C160.05 89.63 158.88 90.81 157.44 90.81C156 90.81 154.83 89.63 154.83 88.18C154.83 86.73 155.99 85.55 157.44 85.55Z" fill="#CDAE27"/>
<path d="M179.77 85.55C181.21 85.55 182.38 86.73 182.38 88.18C182.38 89.63 181.21 90.81 179.77 90.81C178.33 90.81 177.16 89.63 177.16 88.18C177.16 86.73 178.33 85.55 179.77 85.55Z" fill="#CDAE27"/>
<path d="M90.8197 64.1599C92.2597 64.1599 93.4297 65.3399 93.4297 66.7899C93.4297 68.2399 92.2597 69.4199 90.8197 69.4199C89.3797 69.4199 88.2097 68.2399 88.2097 66.7899C88.2097 65.3399 89.3797 64.1599 90.8197 64.1599Z" fill="#CDAE27"/>
<path d="M113.15 64.1599C114.59 64.1599 115.76 65.3399 115.76 66.7899C115.76 68.2399 114.59 69.4199 113.15 69.4199C111.71 69.4199 110.54 68.2399 110.54 66.7899C110.54 65.3399 111.71 64.1599 113.15 64.1599Z" fill="#CDAE27"/>
<path d="M135.48 64.1599C136.92 64.1599 138.09 65.3399 138.09 66.7899C138.09 68.2399 136.92 69.4199 135.48 69.4199C134.04 69.4199 132.87 68.2399 132.87 66.7899C132.87 65.3399 134.04 64.1599 135.48 64.1599Z" fill="#CDAE27"/>
<path d="M68.4798 64.1599C69.9198 64.1599 71.0898 65.3399 71.0898 66.7899C71.0898 68.2399 69.9198 69.4199 68.4798 69.4199C67.0398 69.4199 65.8698 68.2399 65.8698 66.7899C65.8698 65.3399 67.0398 64.1599 68.4798 64.1599Z" fill="#CDAE27"/>
<path d="M180.14 64.1599C181.58 64.1599 182.75 65.3399 182.75 66.7899C182.75 68.2399 181.58 69.4199 180.14 69.4199C178.7 69.4199 177.53 68.2399 177.53 66.7899C177.53 65.3399 178.7 64.1599 180.14 64.1599Z" fill="#CDAE27"/>
<path d="M157.81 64.1599C159.25 64.1599 160.42 65.3399 160.42 66.7899C160.42 68.2399 159.25 69.4199 157.81 69.4199C156.37 69.4199 155.2 68.2399 155.2 66.7899C155.2 65.3399 156.37 64.1599 157.81 64.1599Z" fill="#CDAE27"/>
<path d="M180.51 42.77C181.95 42.77 183.12 43.95 183.12 45.4C183.12 46.85 181.95 48.03 180.51 48.03C179.07 48.03 177.9 46.85 177.9 45.4C177.9 43.95 179.07 42.77 180.51 42.77Z" fill="#CDAE27"/>
<path d="M91.1898 48.03C89.7483 48.03 88.5798 46.8525 88.5798 45.4C88.5798 43.9475 89.7483 42.77 91.1898 42.77C92.6313 42.77 93.7998 43.9475 93.7998 45.4C93.7998 46.8525 92.6313 48.03 91.1898 48.03Z" fill="#CDAE27"/>
<path d="M46.5296 48.03C45.0882 48.03 43.9196 46.8525 43.9196 45.4C43.9196 43.9475 45.0882 42.77 46.5296 42.77C47.9711 42.77 49.1396 43.9475 49.1396 45.4C49.1396 46.8525 47.9711 48.03 46.5296 48.03Z" fill="#CDAE27"/>
<path d="M113.52 42.77C114.96 42.77 116.13 43.95 116.13 45.4C116.13 46.85 114.96 48.03 113.52 48.03C112.08 48.03 110.91 46.85 110.91 45.4C110.91 43.95 112.08 42.77 113.52 42.77Z" fill="#CDAE27"/>
<path d="M135.85 42.77C137.29 42.77 138.46 43.95 138.46 45.4C138.46 46.85 137.29 48.03 135.85 48.03C134.41 48.03 133.24 46.85 133.24 45.4C133.24 43.95 134.41 42.77 135.85 42.77Z" fill="#CDAE27"/>
<path d="M158.18 42.77C159.62 42.77 160.79 43.95 160.79 45.4C160.79 46.85 159.62 48.03 158.18 48.03C156.74 48.03 155.57 46.85 155.57 45.4C155.57 43.95 156.74 42.77 158.18 42.77Z" fill="#CDAE27"/>
<path d="M68.8597 42.77C70.2997 42.77 71.4697 43.95 71.4697 45.4C71.4697 46.85 70.2997 48.03 68.8597 48.03C67.4197 48.03 66.2497 46.85 66.2497 45.4C66.2497 43.95 67.4197 42.77 68.8597 42.77Z" fill="#CDAE27"/>
<path d="M180.88 26.6399C179.438 26.6399 178.27 25.4624 178.27 24.0099C178.27 22.5574 179.438 21.3799 180.88 21.3799C182.321 21.3799 183.49 22.5574 183.49 24.0099C183.49 25.4624 182.321 26.6399 180.88 26.6399Z" fill="#CDAE27"/>
<path d="M69.2298 21.3899C70.6698 21.3899 71.8398 22.5699 71.8398 24.0199C71.8398 25.4699 70.6698 26.6499 69.2298 26.6499C67.7898 26.6499 66.6198 25.4699 66.6198 24.0199C66.6198 22.5699 67.7898 21.3899 69.2298 21.3899Z" fill="#CDAE27"/>
<path d="M158.55 21.3899C159.99 21.3899 161.16 22.5699 161.16 24.0199C161.16 25.4699 159.99 26.6499 158.55 26.6499C157.11 26.6499 155.94 25.4699 155.94 24.0199C155.94 22.5699 157.11 21.3899 158.55 21.3899Z" fill="#CDAE27"/>
<path d="M113.89 21.3899C115.33 21.3899 116.5 22.5699 116.5 24.0199C116.5 25.4699 115.33 26.6499 113.89 26.6499C112.45 26.6499 111.28 25.4699 111.28 24.0199C111.28 22.5699 112.45 21.3899 113.89 21.3899Z" fill="#CDAE27"/>
<path d="M136.22 21.3899C137.66 21.3899 138.83 22.5699 138.83 24.0199C138.83 25.4699 137.66 26.6499 136.22 26.6499C134.78 26.6499 133.61 25.4699 133.61 24.0199C133.61 22.5699 134.78 21.3899 136.22 21.3899Z" fill="#CDAE27"/>
<path d="M91.5599 21.3899C92.9999 21.3899 94.1699 22.5699 94.1699 24.0199C94.1699 25.4699 92.9999 26.6499 91.5599 26.6499C90.1199 26.6499 88.9499 25.4699 88.9499 24.0199C88.9499 22.5699 90.1199 21.3899 91.5599 21.3899Z" fill="#CDAE27"/>
<path d="M24.5697 21.3899C26.0097 21.3899 27.1797 22.5699 27.1797 24.0199C27.1797 25.4699 26.0097 26.6499 24.5697 26.6499C23.1297 26.6499 21.9597 25.4699 21.9597 24.0199C21.9597 22.5699 23.1197 21.3899 24.5697 21.3899Z" fill="#CDAE27"/>
<path d="M46.8998 21.3899C48.3398 21.3899 49.5098 22.5699 49.5098 24.0199C49.5098 25.4699 48.3398 26.6499 46.8998 26.6499C45.4598 26.6499 44.2898 25.4699 44.2898 24.0199C44.2898 22.5699 45.4498 21.3899 46.8998 21.3899Z" fill="#CDAE27"/>
<path d="M158.92 5.24999C157.48 5.24999 156.31 4.06999 156.31 2.61999C156.31 1.16999 157.48 -0.0100098 158.92 -0.0100098C160.36 -0.0100098 161.53 1.16999 161.53 2.61999C161.53 4.06999 160.36 5.24999 158.92 5.24999Z" fill="#CDAE27"/>
<path d="M181.25 5.25C179.81 5.25 178.64 4.07 178.64 2.62C178.64 1.17 179.82 0 181.25 0C182.68 0 183.86 1.18 183.86 2.63C183.86 4.08 182.69 5.26 181.25 5.26V5.25Z" fill="#CDAE27"/>
<path d="M24.9398 5.26C23.4983 5.26 22.3298 4.08251 22.3298 2.63C22.3298 1.17749 23.4983 0 24.9398 0C26.3813 0 27.5498 1.17749 27.5498 2.63C27.5498 4.08251 26.3813 5.26 24.9398 5.26Z" fill="#CDAE27"/>
<path d="M91.93 5.24999C90.49 5.24999 89.32 4.06999 89.32 2.61999C89.32 1.16999 90.49 -0.0100098 91.93 -0.0100098C93.37 -0.0100098 94.54 1.16999 94.54 2.61999C94.54 4.06999 93.37 5.24999 91.93 5.24999Z" fill="#CDAE27"/>
<path d="M69.6 5.24999C68.16 5.24999 66.99 4.06999 66.99 2.61999C66.99 1.16999 68.16 -0.0100098 69.6 -0.0100098C71.04 -0.0100098 72.21 1.16999 72.21 2.61999C72.21 4.06999 71.04 5.24999 69.6 5.24999Z" fill="#CDAE27"/>
<path d="M47.2699 5.24999C45.8299 5.24999 44.6599 4.06999 44.6599 2.61999C44.6599 1.16999 45.8299 -0.0100098 47.2699 -0.0100098C48.7099 -0.0100098 49.8799 1.16999 49.8799 2.61999C49.8799 4.06999 48.7099 5.24999 47.2699 5.24999Z" fill="#CDAE27"/>
<path d="M136.59 5.24999C135.15 5.24999 133.98 4.06999 133.98 2.61999C133.98 1.16999 135.15 -0.0100098 136.59 -0.0100098C138.03 -0.0100098 139.2 1.16999 139.2 2.61999C139.2 4.06999 138.03 5.24999 136.59 5.24999Z" fill="#CDAE27"/>
<path d="M2.60973 5.24999C1.16973 5.24999 -0.000274658 4.06999 -0.000274658 2.61999C-0.000274658 1.16999 1.15973 -0.0100098 2.60973 -0.0100098C4.05973 -0.0100098 5.21973 1.16999 5.21973 2.61999C5.21973 4.06999 4.04973 5.24999 2.60973 5.24999Z" fill="#CDAE27"/>
<path d="M114.26 5.24999C112.82 5.24999 111.65 4.06999 111.65 2.61999C111.65 1.16999 112.82 -0.0100098 114.26 -0.0100098C115.7 -0.0100098 116.87 1.16999 116.87 2.61999C116.87 4.06999 115.7 5.24999 114.26 5.24999Z" fill="#CDAE27"/>
</g>
<defs>
<clipPath id="clip0_132_260">
<rect width="183.86" height="176.35" fill="white" transform="matrix(-1 0 0 1 183.86 0)"/>
</clipPath>
</defs>
</svg>
