<svg width="490" height="395" viewBox="0 0 490 395" fill="none" xmlns="http://www.w3.org/2000/svg">
<path d="M238.5 394.857C370.22 394.857 477 382.074 477 366.307C477 350.539 370.22 337.757 238.5 337.757C106.78 337.757 0 350.539 0 366.307C0 382.074 106.78 394.857 238.5 394.857Z" fill="#DBE6F7"/>
<path d="M179.824 23.2604C179.824 24.3873 179.364 25.416 178.616 26.1592C177.877 26.9077 176.85 27.3676 175.722 27.3676H87.9291C85.6743 27.3676 83.8271 25.5205 83.8271 23.2604C83.8271 22.1325 84.2871 21.1049 85.0345 20.3616C85.7736 19.6132 86.8012 19.1532 87.9291 19.1532H92.0782C93.7173 15.345 97.5015 12.6835 101.907 12.6835C104.871 12.6835 107.553 13.8909 109.495 15.8384C112.081 11.452 116.851 8.50621 122.313 8.50621C123.815 8.50621 125.26 8.73305 126.624 9.14597C129.48 3.7749 135.127 0.117188 141.636 0.117188C149.452 0.117188 156.026 5.39417 158.011 12.5747C159.451 11.8545 161.076 11.4426 162.8 11.4426C167.674 11.4426 171.786 14.6968 173.079 19.1542H175.723C177.976 19.1542 179.824 21.0014 179.824 23.2604Z" fill="#DBE6F7"/>
<path d="M455.859 49.4978C455.859 50.6257 455.4 51.6533 454.651 52.3966C453.912 53.1451 452.885 53.605 451.757 53.605H363.965C361.71 53.605 359.863 51.7579 359.863 49.4978C359.863 48.3698 360.322 47.3423 361.071 46.599C361.81 45.8505 362.837 45.3906 363.965 45.3906H368.114C369.753 41.5823 373.538 38.9198 377.943 38.9198C380.907 38.9198 383.589 40.1272 385.531 42.0747C388.117 37.6884 392.887 34.7425 398.349 34.7425C399.85 34.7425 401.296 34.9694 402.66 35.3823C405.516 30.0112 411.163 26.3535 417.672 26.3535C425.488 26.3535 432.062 31.6305 434.047 38.8111C435.487 38.0908 437.112 37.6789 438.836 37.6789C443.711 37.6789 447.822 40.9332 449.115 45.3906H451.759C454.012 45.3916 455.859 47.2388 455.859 49.4978Z" fill="#DBE6F7"/>
<path d="M355.624 23.2595C355.624 24.3875 355.164 25.415 354.417 26.1583C353.678 26.9068 352.65 27.3667 351.522 27.3667H263.73C261.475 27.3667 259.628 25.5196 259.628 23.2595C259.628 22.1326 260.088 21.104 260.835 20.3607C261.574 19.6122 262.602 19.1523 263.73 19.1523H267.88C269.519 15.344 273.303 12.6815 277.708 12.6815C280.674 12.6815 283.354 13.8889 285.297 15.8364C287.883 11.4501 292.653 8.50425 298.115 8.50425C299.616 8.50425 301.061 8.7311 302.425 9.14401C305.281 3.77295 310.928 0.115234 317.436 0.115234C325.253 0.115234 331.827 5.39221 333.812 12.5738C335.251 11.8536 336.877 11.4417 338.601 11.4417C343.475 11.4417 347.587 14.6959 348.88 19.1533H351.523C353.777 19.1533 355.624 21.0005 355.624 23.2595Z" fill="#DBE6F7"/>
<path d="M79.6128 109.152C79.5009 109.293 79.3859 109.424 79.2668 109.542C75.8693 112.908 69.9808 100.019 75.423 87.1217C80.8651 74.2241 76.3816 57.1847 69.0829 56.5209C61.7852 55.8571 68.1295 67.193 58.7223 65.4535C49.3151 63.714 47.8662 38.6536 35.7254 40.0366C25.1004 41.2451 31.9098 59.8065 37.1879 67.6268C42.168 75.0091 40.6898 82.5159 35.0982 80.8747C29.5086 79.2355 23.9212 86.9952 32.2433 99.0462C40.5654 111.097 51.8365 123.092 46.4121 124.475C40.9878 125.861 29.7031 114.014 24.8965 128.034C22.7483 134.3 36.4007 155.986 66.7036 157.702L79.6128 143.721V109.152Z" fill="#DBE6F7"/>
<path d="M76.0606 143.72C63.2685 109.768 41.7665 57.7484 41.5052 57.116C41.34 56.7177 41.5282 56.2588 41.9285 56.0926C42.3289 55.9274 42.7857 56.1187 42.9519 56.5181C43.2143 57.1557 64.9536 109.742 77.7342 143.719L76.0606 143.72Z" fill="#BBD4F2"/>
<path d="M56.9955 93.9937C56.867 93.9822 56.7405 93.9383 56.6265 93.8609C56.269 93.6174 56.177 93.1302 56.4195 92.7727C56.4875 92.6734 63.1788 82.8031 65.165 75.6852C65.2811 75.2681 65.7138 75.0246 66.1299 75.1417C66.5459 75.2577 66.7906 75.6894 66.6735 76.1065C64.6173 83.4742 57.9949 93.2431 57.7137 93.656C57.5485 93.8986 57.2694 94.0188 56.9955 93.9937Z" fill="#BBD4F2"/>
<path d="M59.8735 102.345C59.8578 102.344 59.8421 102.342 59.8264 102.34C59.3466 102.268 47.9982 100.516 40.3075 96.3052C39.928 96.0972 39.789 95.6215 39.997 95.242C40.205 94.8626 40.6807 94.7235 41.0601 94.9316C48.5041 99.0074 59.9467 100.775 60.0616 100.792C60.4892 100.857 60.7829 101.256 60.7181 101.684C60.6554 102.094 60.2833 102.382 59.8735 102.345Z" fill="#BBD4F2"/>
<path d="M79.6124 126.424C76.3112 130.388 72.781 133.441 72.7214 133.493C72.3932 133.775 72.3555 134.268 72.6367 134.596C72.7747 134.757 72.9639 134.849 73.1594 134.867C73.3633 134.886 73.5734 134.825 73.7406 134.682C73.9602 134.494 76.698 132.126 79.6124 128.843V126.424Z" fill="#BBD4F2"/>
<path d="M63.3956 141.612C58.934 141.205 54.0239 140.351 49.9836 138.631C49.5853 138.462 49.4003 138.002 49.5696 137.604C49.739 137.205 50.1989 137.02 50.5972 137.19C60.2375 141.293 75.6712 140.255 75.8259 140.243C76.2556 140.212 76.6319 140.538 76.6622 140.969C76.6925 141.4 76.3674 141.775 75.9367 141.805C75.551 141.834 69.9615 142.21 63.3956 141.612Z" fill="#BBD4F2"/>
<path d="M412.14 291.768C412.252 291.909 412.367 292.04 412.486 292.158C415.883 295.524 421.772 282.636 416.329 269.738C410.887 256.84 415.371 239.801 422.67 239.137C429.967 238.473 423.623 249.809 433.03 248.07C442.437 246.33 443.887 221.27 456.027 222.653C466.652 223.861 459.843 242.423 454.565 250.243C449.584 257.625 451.063 265.132 456.654 263.491C462.244 261.852 467.831 269.611 459.509 281.662C451.187 293.713 439.916 305.708 445.34 307.091C450.765 308.477 462.049 296.631 466.856 310.65C469.005 316.916 464.363 322.298 458.572 326.337H412.14V291.768Z" fill="#DBE6F7"/>
<path d="M415.691 326.335C428.483 292.383 449.985 240.365 450.247 239.731C450.412 239.333 450.224 238.874 449.823 238.708C449.423 238.543 448.966 238.734 448.8 239.134C448.537 239.771 426.798 292.358 414.018 326.335H415.691Z" fill="#BBD4F2"/>
<path d="M434.757 276.607C434.885 276.595 435.012 276.552 435.126 276.474C435.483 276.231 435.575 275.744 435.333 275.386C435.265 275.288 428.573 265.416 426.587 258.299C426.471 257.881 426.037 257.638 425.622 257.755C425.206 257.871 424.962 258.303 425.078 258.72C427.134 266.088 433.756 275.856 434.037 276.268C434.205 276.512 434.483 276.632 434.757 276.607Z" fill="#BBD4F2"/>
<path d="M431.877 284.96C431.893 284.959 431.908 284.957 431.924 284.955C432.404 284.883 443.752 283.131 451.443 278.92C451.822 278.713 451.962 278.237 451.755 277.857C451.547 277.478 451.071 277.339 450.691 277.547C443.247 281.623 431.805 283.39 431.69 283.407C431.262 283.472 430.969 283.871 431.033 284.299C431.095 284.71 431.468 284.997 431.877 284.96Z" fill="#BBD4F2"/>
<path d="M412.14 309.04C415.441 313.004 418.971 316.058 419.031 316.109C419.359 316.391 419.397 316.885 419.115 317.214C418.977 317.375 418.788 317.466 418.593 317.484C418.389 317.503 418.179 317.443 418.011 317.299C417.792 317.111 415.054 314.744 412.14 311.46V309.04Z" fill="#BBD4F2"/>
<path d="M428.356 324.228C432.817 323.822 437.727 322.967 441.768 321.247C442.166 321.078 442.351 320.618 442.181 320.22C442.012 319.822 441.552 319.637 441.154 319.806C431.513 323.909 416.08 322.871 415.925 322.859C415.494 322.828 415.119 323.154 415.089 323.585C415.059 324.017 415.383 324.391 415.814 324.421C416.201 324.45 421.79 324.826 428.356 324.228Z" fill="#BBD4F2"/>
<path d="M461.256 123.224C465.6 105.695 472.945 89.8989 479.876 96.9802C486.814 104.068 473.661 131.011 455.501 145.327L450.489 151.674C463.541 141.01 483.89 135.361 488.948 142.085C493.973 148.768 480.086 151.299 467.017 151.496C457.068 151.645 450.589 154.022 447.425 155.554L423.748 185.533C444.466 168.703 476.595 159.819 484.597 170.461C492.571 181.065 470.536 185.08 449.798 185.392C434.127 185.627 423.875 189.348 418.814 191.78L414.093 197.757C412.929 197.101 411.767 196.439 410.611 195.769L438.78 160.103C439.148 156.295 439.098 150.879 437.58 144.048C434.741 131.288 433.986 117.193 441.651 120.533C448.304 123.432 448.639 139.525 443.894 153.628L453.635 141.294C455.996 136.964 459.381 130.789 461.256 123.224Z" fill="#DBE6F7"/>
<path d="M245.057 41.6223C245.476 23.5679 242.546 6.39575 233.996 11.4041C225.438 16.4166 231.04 45.8706 244.794 64.4603L247.961 71.9022C238.173 58.1798 220.027 47.376 213.379 52.5348C206.773 57.6602 219.505 63.7547 232.063 67.3821C241.622 70.1429 247.247 74.1414 249.897 76.4516L264.853 111.603C249.292 89.9169 220.632 72.8932 210.113 81.0554C199.63 89.1883 219.832 98.8589 239.758 104.615C254.815 108.964 263.727 115.251 267.97 118.929L270.952 125.938C272.249 125.612 273.543 125.277 274.835 124.935L257.041 83.1158C257.688 79.3441 259.16 74.132 262.421 67.9413C268.516 56.3776 272.953 42.9781 264.678 44.1834C257.498 45.2298 252.94 60.6688 253.81 75.5233L247.656 61.0608C246.517 56.2615 244.876 49.4144 245.057 41.6223Z" fill="#DBE6F7"/>
<path d="M32.5525 241.888C28.208 224.359 20.8633 208.563 13.9325 215.644C6.99448 222.732 20.1462 249.675 38.3072 263.992L43.3197 270.34C30.2673 259.675 9.91835 254.026 4.8609 260.75C-0.164145 267.433 13.7224 269.964 26.7915 270.161C36.7402 270.31 43.2194 272.689 46.3837 274.22L70.06 304.199C49.342 287.37 17.2139 278.485 9.21169 289.127C1.23768 299.731 23.2728 303.746 44.0107 304.058C59.6817 304.293 69.9335 308.014 74.9941 310.446L79.715 316.423C80.8795 315.767 82.0409 315.105 83.1971 314.435L55.0288 278.769C54.6608 274.96 54.7089 269.545 56.2289 262.714C59.067 249.955 59.8228 235.859 52.1572 239.199C45.5045 242.098 45.1689 258.191 49.9149 272.294L40.1732 259.96C37.8117 255.628 34.4279 249.453 32.5525 241.888Z" fill="#DBE6F7"/>
<path d="M424.967 122.09V319.531C424.967 327.67 418.369 334.267 410.227 334.267H73.7445C65.6032 334.267 59.0049 327.67 59.0049 319.531V122.09C59.0049 113.949 65.6022 107.351 73.7445 107.351H410.227C418.368 107.351 424.967 113.948 424.967 122.09Z" fill="#3B3E7D"/>
<path d="M424.968 220.807V319.528C424.968 327.669 418.369 334.266 410.229 334.266H73.7443C65.6041 334.266 59.0068 327.668 59.0068 319.528V220.807H424.968Z" fill="#18285D"/>
<path d="M408.711 132.124V309.492C408.711 314.711 404.48 318.943 399.263 318.943H84.7138C81.9248 318.943 79.4159 317.734 77.6869 315.804C76.1774 314.137 75.2627 311.919 75.2627 309.491V132.124C75.2627 126.906 79.4954 122.673 84.7138 122.673H399.263C401.007 122.673 402.639 123.146 404.043 123.973C406.834 125.614 408.711 128.653 408.711 132.124Z" fill="white"/>
<path d="M408.711 132.124V309.492C408.711 314.711 404.48 318.943 399.263 318.943H84.7138C81.9248 318.943 79.4159 317.734 77.6869 315.804C76.1774 314.137 75.2627 311.919 75.2627 309.491V132.124C75.2627 126.906 79.4954 122.673 84.7138 122.673H399.263C401.007 122.673 402.639 123.146 404.043 123.973C406.834 125.614 408.711 128.653 408.711 132.124Z" fill="white"/>
<path d="M85.9111 198.237C85.9111 199.651 87.0569 200.797 88.4712 200.797H142.769C144.184 200.797 145.329 199.651 145.329 198.237C145.329 196.822 144.184 195.677 142.769 195.677H88.4712C87.0579 195.677 85.9111 196.824 85.9111 198.237Z" fill="#DBE6F7"/>
<path d="M85.9111 211.302C85.9111 212.717 87.0569 213.862 88.4712 213.862H142.769C144.184 213.862 145.329 212.717 145.329 211.302C145.329 209.888 144.184 208.742 142.769 208.742H88.4712C87.0579 208.742 85.9111 209.888 85.9111 211.302Z" fill="#DBE6F7"/>
<path d="M85.9111 224.017C85.9111 225.236 87.0422 226.226 88.4367 226.226H142C143.394 226.226 144.526 225.238 144.526 224.017C144.526 222.797 143.394 221.807 142 221.807H88.4367C87.0422 221.807 85.9111 222.797 85.9111 224.017Z" fill="#DBE6F7"/>
<path d="M85.9111 243.545C85.9111 244.96 87.0569 246.106 88.4712 246.106H142.769C144.184 246.106 145.329 244.96 145.329 243.545C145.329 242.131 144.184 240.985 142.769 240.985H88.4712C87.0579 240.985 85.9111 242.132 85.9111 243.545Z" fill="#DBE6F7"/>
<path d="M85.9111 256.611C85.9111 258.025 87.0569 259.171 88.4712 259.171H142.769C144.184 259.171 145.329 258.025 145.329 256.611C145.329 255.197 144.184 254.051 142.769 254.051H88.4712C87.0579 254.051 85.9111 255.197 85.9111 256.611Z" fill="#DBE6F7"/>
<path d="M85.9111 269.676C85.9111 271.091 87.0569 272.236 88.4712 272.236H142.769C144.184 272.236 145.329 271.091 145.329 269.676C145.329 268.262 144.184 267.116 142.769 267.116H88.4712C87.0579 267.116 85.9111 268.263 85.9111 269.676Z" fill="#DBE6F7"/>
<path d="M338.27 198.237C338.27 199.651 339.415 200.797 340.83 200.797H395.128C396.542 200.797 397.688 199.651 397.688 198.237C397.688 196.822 396.542 195.677 395.128 195.677H340.83C339.416 195.677 338.27 196.824 338.27 198.237Z" fill="#DBE6F7"/>
<path d="M338.27 211.302C338.27 212.717 339.415 213.862 340.83 213.862H395.128C396.542 213.862 397.688 212.717 397.688 211.302C397.688 209.888 396.542 208.742 395.128 208.742H340.83C339.416 208.742 338.27 209.888 338.27 211.302Z" fill="#DBE6F7"/>
<path d="M338.27 224.017C338.27 225.236 339.401 226.226 340.795 226.226H394.358C395.753 226.226 396.884 225.238 396.884 224.017C396.884 222.797 395.753 221.807 394.358 221.807H340.795C339.401 221.807 338.27 222.797 338.27 224.017Z" fill="#DBE6F7"/>
<path d="M338.27 243.545C338.27 244.96 339.415 246.106 340.83 246.106H395.128C396.542 246.106 397.688 244.96 397.688 243.545C397.688 242.131 396.542 240.985 395.128 240.985H340.83C339.416 240.985 338.27 242.132 338.27 243.545Z" fill="#DBE6F7"/>
<path d="M338.27 256.611C338.27 258.025 339.415 259.171 340.83 259.171H395.128C396.542 259.171 397.688 258.025 397.688 256.611C397.688 255.197 396.542 254.051 395.128 254.051H340.83C339.416 254.051 338.27 255.197 338.27 256.611Z" fill="#DBE6F7"/>
<path d="M338.27 269.676C338.27 271.091 339.415 272.236 340.83 272.236H395.128C396.542 272.236 397.688 271.091 397.688 269.676C397.688 268.262 396.542 267.116 395.128 267.116H340.83C339.416 267.116 338.27 268.263 338.27 269.676Z" fill="#DBE6F7"/>
<path d="M408.711 132.124V141.987H75.2627V132.124C75.2627 126.906 79.4954 122.673 84.7138 122.673H399.263C401.007 122.673 402.639 123.146 404.043 123.973C406.834 125.614 408.711 128.653 408.711 132.124Z" fill="#DBE6F7"/>
<path d="M407.004 126.718H76.9668C78.6707 124.273 81.5047 122.675 84.714 122.675H399.261C402.469 122.675 405.304 124.273 407.004 126.718Z" fill="#021147"/>
<path d="M374.107 133.339C374.107 135.163 372.627 136.642 370.803 136.642C368.978 136.642 367.5 135.163 367.5 133.339C367.5 131.514 368.979 130.034 370.803 130.034C372.627 130.034 374.107 131.513 374.107 133.339Z" fill="#707FFF"/>
<path d="M384.814 133.339C384.814 135.163 383.335 136.642 381.51 136.642C379.685 136.642 378.206 135.163 378.206 133.339C378.206 131.514 379.685 130.034 381.51 130.034C383.335 130.034 384.814 131.513 384.814 133.339Z" fill="#3B3E7D"/>
<path d="M395.004 133.339C395.004 135.163 393.525 136.642 391.701 136.642C389.877 136.642 388.397 135.163 388.397 133.339C388.397 131.514 389.877 130.034 391.701 130.034C393.525 130.034 395.004 131.513 395.004 133.339Z" fill="#4F60D9"/>
<path d="M329.881 189.35V309.329H156.103V189.35H164.094L164.021 189.283L164.108 189.35H329.881Z" fill="#DBE6F7"/>
<path d="M329.88 184.472H156.189V304.452H329.88V184.472Z" fill="#1D38C8"/>
<path d="M329.88 180.08H156.189V300.06H329.88V180.08Z" fill="#4F60D9"/>
<g opacity="0.5">
<path d="M168.129 220.536V272.713C168.129 274.449 166.722 275.856 164.985 275.856C163.249 275.856 161.842 274.449 161.842 272.713V220.536C161.842 218.8 163.249 217.393 164.985 217.393C166.72 217.393 168.129 218.8 168.129 220.536Z" fill="#4F60D9"/>
</g>
<g opacity="0.5">
<path d="M168.129 204.569V209.85C168.129 211.587 166.722 212.994 164.985 212.994C163.249 212.994 161.842 211.587 161.842 209.85V204.569C161.842 202.834 163.249 201.426 164.985 201.426C166.722 201.426 168.129 202.834 168.129 204.569Z" fill="#4F60D9"/>
</g>
<path d="M226.303 242.17L161.221 300.058H156.189V296.999L222.561 237.967L226.303 242.17Z" fill="#1D38C8"/>
<path d="M329.882 297.406V300.058H324.396L259.313 242.17L263.055 237.967L329.882 297.406Z" fill="#1D38C8"/>
<path d="M329.875 180.077L303.563 203.48L248.754 252.224C245.491 255.129 240.57 255.129 237.305 252.224L182.508 203.487L156.185 180.077H329.875Z" fill="#1D38C8"/>
<path d="M303.563 160.909V203.479L286.863 218.331L281.107 223.451L272.174 231.396L266.418 236.516L257.484 244.46L251.728 249.581L248.755 252.224C245.492 255.129 240.571 255.129 237.306 252.224L234.333 249.581L228.577 244.46L219.643 236.516L213.886 231.396L204.953 223.451L199.197 218.331L182.508 203.488V160.909C182.508 157.075 185.615 153.967 189.45 153.967H296.621C300.456 153.967 303.563 157.075 303.563 160.909Z" fill="#DBE6F7"/>
<path d="M226.36 170.543H197.03C195.753 170.543 194.717 169.507 194.717 168.23V167.735C194.717 166.458 195.753 165.422 197.03 165.422H226.359C227.636 165.422 228.672 166.458 228.672 167.735V168.23C228.673 169.508 227.637 170.543 226.36 170.543Z" fill="#BBD4F2"/>
<path d="M292.675 184.255H197.278C195.863 184.255 194.718 183.109 194.718 181.695C194.718 180.28 195.863 179.135 197.278 179.135H292.675C294.09 179.135 295.235 180.28 295.235 181.695C295.235 183.109 294.09 184.255 292.675 184.255Z" fill="#BBD4F2"/>
<path d="M292.675 197.32H197.278C195.863 197.32 194.718 196.175 194.718 194.76C194.718 193.346 195.863 192.2 197.278 192.2H292.675C294.09 192.2 295.235 193.346 295.235 194.76C295.235 196.174 294.09 197.32 292.675 197.32Z" fill="#BBD4F2"/>
<path d="M292.675 210.385H197.278C195.863 210.385 194.718 209.239 194.718 207.825C194.718 206.41 195.863 205.265 197.278 205.265H292.675C294.09 205.265 295.235 206.41 295.235 207.825C295.235 209.239 294.09 210.385 292.675 210.385Z" fill="#BBD4F2"/>
<path d="M286.863 218.332L281.107 223.451H204.953L199.196 218.332H286.863Z" fill="#BBD4F2"/>
<path d="M272.173 231.396L266.417 236.517H219.642L213.887 231.396H272.173Z" fill="#BBD4F2"/>
<path d="M257.484 244.461L251.728 249.581H234.332L228.576 244.461H257.484Z" fill="#BBD4F2"/>
<path d="M302.347 167.66H301.41C293.103 167.66 286.369 160.925 286.369 152.619V151.681C286.369 143.375 293.103 136.641 301.41 136.641H302.347C310.654 136.641 317.388 143.375 317.388 151.681V152.619C317.388 160.926 310.654 167.66 302.347 167.66Z" fill="#4F60D9"/>
<path d="M305.09 167.66H304.152C295.846 167.66 289.111 160.925 289.111 152.619V151.681C289.111 143.375 295.846 136.641 304.152 136.641H305.09C313.396 136.641 320.13 143.375 320.13 151.681V152.619C320.13 160.926 313.396 167.66 305.09 167.66Z" fill="#707FFF"/>
<path d="M302.282 152.968L301.198 142.563H307.701L306.617 152.968H302.282ZM304.45 159.665C303.518 159.665 302.756 159.384 302.161 158.822C301.567 158.244 301.27 157.561 301.27 156.774C301.27 155.971 301.567 155.297 302.161 154.751C302.756 154.205 303.518 153.932 304.45 153.932C305.397 153.932 306.16 154.205 306.738 154.751C307.332 155.297 307.629 155.971 307.629 156.774C307.629 157.561 307.332 158.244 306.738 158.822C306.16 159.384 305.397 159.665 304.45 159.665Z" fill="white"/>
<path d="M459.152 326.378V327.641C459.152 333.921 457.137 339.729 453.717 344.453C448.502 351.667 440.014 356.361 430.431 356.361H53.5426C43.9587 356.361 35.4714 351.667 30.2561 344.453C26.8357 339.729 24.8213 333.921 24.8213 327.641V326.378H459.152Z" fill="#18285D"/>
<path d="M193.308 326.378V326.666C193.308 328.941 194.831 330.784 196.709 330.784H285.376C287.254 330.784 288.777 328.94 288.777 326.666V326.378H193.308Z" fill="white"/>
<path d="M453.717 344.452C448.501 351.666 440.014 356.36 430.43 356.36H53.5423C43.9584 356.36 35.4712 351.666 30.2559 344.452H453.717Z" fill="#021147"/>
<path d="M57.8275 307.838L54.0234 315.979L62.0664 316.105L65.1691 308.696L57.8275 307.838Z" fill="#FAB083"/>
<path d="M56.5545 315.471C56.5545 315.471 54.9029 313.252 53.5909 313.347C52.279 313.442 42.1589 321.488 38.6914 322.153C35.224 322.818 35.5459 326.35 36.9969 326.35C41.1763 326.35 64.1919 326.183 64.1919 326.183C64.1919 326.183 64.9342 318.139 64.0508 315.679C63.1675 313.219 59.2662 316.053 56.5545 315.471Z" fill="#707FFF"/>
<path d="M50.961 321.086C51.0833 321.123 51.2213 321.111 51.3405 321.043C51.5736 320.911 51.6541 320.615 51.5224 320.381C51.4785 320.302 50.4195 318.463 48.9937 317.745C47.0974 316.788 45.6192 317.859 45.5565 317.906C45.3412 318.065 45.2962 318.37 45.4561 318.586C45.6161 318.801 45.9203 318.846 46.1356 318.686C46.1754 318.657 47.205 317.934 48.5556 318.614C49.717 319.199 50.6683 320.846 50.6777 320.862C50.7425 320.975 50.846 321.052 50.961 321.086Z" fill="white"/>
<path d="M52.4093 319.718C52.5316 319.755 52.6685 319.744 52.7887 319.676C53.0218 319.543 53.1034 319.246 52.9706 319.013C52.9257 318.934 51.8678 317.096 50.4419 316.378C48.5446 315.419 47.0675 316.491 47.0047 316.537C46.7894 316.697 46.7445 317.002 46.9044 317.217C47.0633 317.432 47.3685 317.477 47.5839 317.317C47.6246 317.289 48.6543 316.566 50.0039 317.245C51.1705 317.833 52.1166 319.477 52.1249 319.494C52.1908 319.607 52.2932 319.684 52.4093 319.718Z" fill="white"/>
<path d="M48.9991 322.197C49.1225 322.234 49.2594 322.222 49.3786 322.154C49.6117 322.021 49.6932 321.724 49.5605 321.491C49.5155 321.414 48.4576 319.574 47.0317 318.856C45.1344 317.897 43.6573 318.97 43.5946 319.016C43.3792 319.176 43.3343 319.48 43.4942 319.695C43.6542 319.911 43.9584 319.956 44.1737 319.796C44.2145 319.767 45.2442 319.044 46.5937 319.724C47.7603 320.311 48.7064 321.956 48.7148 321.972C48.7806 322.085 48.8841 322.162 48.9991 322.197Z" fill="white"/>
<path d="M55.5352 310.492L59.0988 311.655L61.0797 311.773L64.4845 311.972C68.9827 308.415 81.1162 297.71 83.4808 291.397C83.4808 291.397 94.8083 322.217 116.394 322.217C117.795 322.217 118.378 309.636 114.859 305.88C114.859 305.88 94.963 268.8 82.0654 272.736C76.2887 274.497 70.4451 282.906 55.5352 310.492Z" fill="#18285D"/>
<path d="M59.0996 311.656L61.0806 311.774C74.3211 301.748 80.4553 293.258 83.2788 287.82C83.376 287.63 83.5349 287.57 83.6415 287.572C83.7335 287.575 83.8004 287.625 83.8433 287.733C90.1834 302.657 97.7926 311.615 103.059 316.504C108.799 321.83 112.998 323.587 113.172 323.66L113.414 323.067L113.657 322.476C113.616 322.459 109.45 320.708 103.866 315.51C98.7083 310.711 91.2518 301.909 85.0183 287.231C84.781 286.666 84.2823 286.316 83.6896 286.293C83.0509 286.267 82.453 286.635 82.1435 287.229C79.297 292.713 72.9893 301.379 59.0996 311.656Z" fill="#021147"/>
<path d="M68.0549 309.545C67.4883 310.605 66.5151 312.101 65.5847 312.825C65.5847 312.825 57.9598 312.472 54.252 310.61L55.9151 306.733C55.9151 306.733 61.9845 308.949 68.0549 309.545Z" fill="#3B3E7D"/>
<path d="M115.854 242.837C115.854 242.837 101.078 260.476 94.8719 263.373C92.1477 264.646 89.4569 265.094 87.4697 265.165C86.8027 265.19 85.0674 265.049 84.9723 265.047C84.964 265.047 84.9566 265.049 84.9566 265.049C77.5837 264.135 68.9177 261.916 58.0752 257.501L59.6913 252.479C59.6913 252.479 66.206 253.863 74.1894 254.432C77.1332 254.639 83.9238 254.951 86.4348 255.356C87.0568 255.077 87.6694 254.775 88.2663 254.448C99.2843 248.501 106.556 236.393 106.556 236.393C110.043 237.701 114.047 240.148 115.854 242.837Z" fill="#4F60D9"/>
<path d="M59.9669 252.079C59.9669 252.079 58.4574 248.265 56.4033 247.177C54.3492 246.089 48.5035 242.256 47.2564 243.403C46.0093 244.55 46.2664 250.056 51.5068 254.659C54.8447 257.591 58.2086 257.466 58.2086 257.466L59.9669 252.079Z" fill="#FAB083"/>
<path d="M46.8812 246.906L55.5096 254.967C55.8337 255.272 56.4191 255.359 56.8195 255.166L62.108 252.609C62.2721 252.528 62.3797 252.413 62.4257 252.284L62.4383 252.242L62.6975 251.358L61.2947 250.827L47.7196 245.671L46.9837 245.394L46.7077 246.327L46.6868 246.392C46.6826 246.399 46.6816 246.407 46.6847 246.415C46.6523 246.578 46.7192 246.757 46.8812 246.906Z" fill="#18285D"/>
<path d="M57.0829 254.27L62.3735 251.712C62.7728 251.518 62.8335 251.118 62.5105 250.816L53.881 242.755C53.558 242.453 52.9726 242.364 52.5733 242.557L47.2827 245.115C46.8834 245.309 46.8227 245.709 47.1468 246.011L55.7752 254.072C56.0993 254.374 56.6847 254.462 57.0829 254.27Z" fill="#3B3E7D"/>
<path d="M56.4417 252.825L60.5406 250.843C60.9399 250.65 61.0005 250.249 60.6775 249.947L53.9663 243.678C53.6433 243.376 53.0568 243.287 52.6586 243.48L48.5597 245.462C48.1614 245.656 48.0997 246.056 48.4238 246.358L55.135 252.627C55.458 252.929 56.0434 253.018 56.4417 252.825Z" fill="#58619B"/>
<path d="M56.5508 245.249C56.5508 245.249 55.3215 245.441 55.196 246.498C55.0706 247.554 56.2142 247.134 56.9491 246.902C57.684 246.67 58.3468 246.903 58.4471 247.022C58.7691 247.4 58.7137 244.936 56.5508 245.249Z" fill="#FAB083"/>
<path d="M51.055 250.986C51.055 250.986 49.1263 247.817 47.6482 246.086C46.6634 244.932 46.1606 246.605 46.8349 247.772C47.5091 248.939 48.8388 251.315 51.055 250.986Z" fill="#FAB083"/>
<path d="M126.228 224.564C126.228 224.564 135.54 224.611 139.786 228.449C144.031 232.287 139.979 240.084 135.374 241.083C130.769 242.083 116.39 240.379 114.896 237.914C113.4 235.45 114.348 224.754 126.228 224.564Z" fill="#707FFF"/>
<path d="M140.913 308.133L145.439 278.944L144.458 238.678L133.628 235.016L133.046 234.82L130.616 233.998L128.686 233.347L117.252 234.922L115.391 235.177L114.735 235.268L106.555 236.394C106.478 262.273 108.962 267.862 104.179 288.914C101.775 296.85 110.606 324.971 140.913 308.133Z" fill="#707FFF"/>
<path d="M125.451 241.195C133.644 241.165 135.545 233.945 135.564 233.872C135.605 233.71 135.507 233.545 135.345 233.505C135.184 233.463 135.018 233.562 134.978 233.724C134.906 234.005 133.161 240.562 125.451 240.59C125.408 240.59 125.367 240.59 125.324 240.59C125.162 240.598 125.021 240.724 125.021 240.89C125.019 241.057 125.154 241.193 125.322 241.194C125.364 241.195 125.409 241.195 125.451 241.195Z" fill="#4F60D9"/>
<path d="M117.755 240.066C117.919 240.065 118.054 239.933 118.056 239.768C118.058 239.601 117.925 239.463 117.759 239.46C117.651 239.458 115.269 239.362 114.653 236.142C114.622 235.978 114.465 235.871 114.3 235.902C114.136 235.933 114.028 236.092 114.06 236.255C114.772 239.978 117.719 240.065 117.75 240.065C117.75 240.065 117.753 240.066 117.755 240.066Z" fill="#4F60D9"/>
<path d="M130.982 280.916C130.982 280.916 132.312 291.074 129.603 296.044C129.603 296.044 116.129 296.988 106.333 293.136C106.333 293.136 108.78 286.045 108.818 279.123L130.982 280.916Z" fill="#4F60D9"/>
<path d="M123.787 270.166C123.795 270.166 123.805 270.166 123.813 270.165C123.979 270.15 124.102 270.003 124.087 269.836C123.409 262.306 126.231 243.294 126.259 243.102C126.284 242.937 126.17 242.783 126.005 242.758C125.84 242.733 125.686 242.847 125.661 243.012C125.632 243.205 122.8 262.288 123.485 269.89C123.499 270.047 123.631 270.167 123.787 270.166Z" fill="white"/>
<path d="M113.822 268.69C113.83 268.69 113.839 268.69 113.848 268.689C114.014 268.675 114.136 268.527 114.122 268.361C113.444 260.83 116.361 241.67 116.39 241.478C116.415 241.312 116.302 241.159 116.137 241.134C115.972 241.107 115.818 241.221 115.792 241.387C115.763 241.58 112.835 260.814 113.518 268.416C113.534 268.573 113.667 268.691 113.822 268.69Z" fill="white"/>
<path d="M152.619 318.324C152.619 318.324 149.265 322.873 149.541 325.226C149.818 327.58 152.855 332.016 155.284 332.23C157.712 332.444 152.494 326.53 153.725 326.721C155.216 326.952 165.277 335.207 167.402 335.207C169.525 335.207 164.903 331.371 163.103 330.401C163.103 330.401 167.864 332.53 168.972 333.638C170.08 334.746 170.884 332.37 165.345 329C165.345 329 170.426 331.884 170.772 331.93C171.902 332.081 168.678 328.301 165.901 326.933C165.901 326.933 169.974 328.916 170.388 328.925C170.961 328.937 169.733 327.604 166.71 325.929C163.991 324.421 159.534 317.501 159.534 317.501L152.619 318.324Z" fill="#FAB083"/>
<path d="M144.458 238.678C144.458 238.678 155.75 260.367 158.322 283.053L159.533 317.501C159.533 317.501 158.373 319.956 152.618 318.324L147.053 283.88L142.788 268.12C142.788 268.12 140.849 248.726 144.458 238.678Z" fill="#707FFF"/>
<path d="M109.775 215.227C110.976 222.012 117.448 226.542 124.234 225.342C131.019 224.143 135.548 217.669 134.349 210.884C133.149 204.098 126.676 199.57 119.89 200.769C113.105 201.968 108.576 208.441 109.775 215.227Z" fill="#021147"/>
<path d="M109.588 212.989C109.588 212.989 105.939 212.643 105.801 209.185C105.683 206.241 109.389 207.508 108.695 205.315C108.001 203.12 106.981 201.195 109.788 200.119C112.243 199.178 112.593 200.913 115.484 197.795C118.899 194.113 123.15 200.49 126.707 200.076C131.951 199.465 133.126 202.285 134.051 204.543C134.977 206.801 133.271 208.802 133.271 208.802L109.588 212.989Z" fill="#021147"/>
<path d="M112.448 218.301C112.448 218.301 110.042 216.05 108.975 218.451C107.907 220.853 111.073 226.829 114.343 224.656L112.448 218.301Z" fill="#FC8664"/>
<path d="M113.223 222.834C113.093 222.857 112.957 222.792 112.896 222.666C112.001 220.807 109.834 220.372 109.812 220.368C109.647 220.336 109.539 220.177 109.571 220.012C109.602 219.847 109.761 219.739 109.925 219.77C110.027 219.789 112.414 220.261 113.445 222.402C113.517 222.554 113.454 222.735 113.303 222.808C113.277 222.821 113.251 222.83 113.223 222.834Z" fill="#FD664D"/>
<path d="M111.004 222.21C110.948 222.219 110.89 222.214 110.833 222.191C110.678 222.126 110.605 221.948 110.67 221.793C110.681 221.767 110.943 221.156 111.634 220.688C111.772 220.594 111.962 220.63 112.056 220.769C112.15 220.908 112.115 221.098 111.975 221.192C111.441 221.554 111.233 222.024 111.231 222.028C111.19 222.127 111.102 222.193 111.004 222.21Z" fill="#FD664D"/>
<path d="M128.661 227.669L129.775 233.971C129.775 233.971 127.675 237.207 125.172 237.875C122.671 238.545 120.593 235.802 120.593 235.802L119.521 229.741L128.661 227.669Z" fill="#FAB083"/>
<path d="M128.661 227.669L129.155 230.465C127.785 232.66 124.839 233.668 120.24 233.799L119.522 229.742L128.661 227.669Z" fill="#FC8664"/>
<path d="M132.444 210.308C132.759 212.778 133.068 215.881 133.033 218.413C133.025 219.045 132.995 219.643 132.938 220.184C132.432 225.063 130.523 233.614 120.649 231.938C116.288 231.199 113.579 226.965 111.911 222.469C110.779 219.415 110.127 216.242 109.767 213.956C109.4 211.622 110.294 209.272 112.116 207.766C117.049 203.689 123.039 203.825 127.106 204.617C129.929 205.163 132.08 207.46 132.444 210.308Z" fill="#FAB083"/>
<path d="M117.262 218.298C117.382 218.971 117.131 219.577 116.703 219.653C116.276 219.728 115.832 219.244 115.713 218.572C115.594 217.9 115.845 217.292 116.273 217.217C116.7 217.141 117.143 217.625 117.262 218.298Z" fill="#021147"/>
<path d="M126.332 216.694C126.451 217.367 126.2 217.974 125.773 218.049C125.345 218.124 124.902 217.64 124.783 216.968C124.663 216.295 124.914 215.688 125.342 215.613C125.769 215.538 126.213 216.022 126.332 216.694Z" fill="#021147"/>
<path d="M113.309 215.138C113.309 215.138 116.308 213.294 118.98 213.927L118.977 215.116C118.977 215.116 116.183 214.992 113.724 216.438C113.464 215.937 113.195 215.721 113.309 215.138Z" fill="#021147"/>
<path d="M128.061 212.531C128.061 212.531 124.612 211.827 122.318 213.338L122.729 214.454C122.729 214.454 125.311 213.378 128.117 213.894C128.188 213.335 128.367 213.041 128.061 212.531Z" fill="#021147"/>
<path d="M122.4 222.332C122.905 222.242 123.372 221.958 123.444 221.912C123.585 221.822 123.628 221.635 123.538 221.493C123.449 221.351 123.261 221.308 123.119 221.398C122.868 221.555 122.249 221.842 121.937 221.724C121.877 221.701 121.792 221.649 121.741 221.471C121.448 220.444 121.115 216.889 121.111 216.853C121.096 216.686 120.947 216.564 120.781 216.579C120.613 216.594 120.491 216.743 120.506 216.91C120.52 217.058 120.848 220.558 121.156 221.638C121.272 222.045 121.528 222.218 121.721 222.292C121.934 222.373 122.171 222.373 122.4 222.332Z" fill="#FC8664"/>
<path d="M118.958 224.829C119.42 226.017 120.634 228.139 123.375 227.654C126.121 227.169 126.525 224.962 126.538 223.489L118.958 224.829Z" fill="white"/>
<path d="M123.613 229.225C124.388 229.088 124.975 228.579 125.001 228.558C125.127 228.447 125.14 228.255 125.029 228.129C124.918 228.003 124.726 227.99 124.6 228.101C124.596 228.105 124.112 228.52 123.508 228.627C122.954 228.725 122.367 228.5 122.361 228.498C122.205 228.436 122.029 228.512 121.966 228.669C121.904 228.824 121.979 229.001 122.136 229.064C122.167 229.075 122.882 229.354 123.613 229.225Z" fill="#FC8664"/>
<path d="M112.493 220.353C112.049 219.158 111.543 217.604 111.562 216.758C111.598 215.261 112.645 214.199 111.999 212.875C111.353 211.547 112.561 209.787 113.603 209.347C114.643 208.904 117.274 208.996 119.559 207.371C121.741 205.817 126.024 205.896 126.97 207.305C128.114 209.012 127.034 209.383 129.616 210.991C130.645 211.631 129.958 213.889 130.046 215.264C130.088 215.896 130.132 216.201 130.274 216.862L130.343 217.199L133.01 216.728C132.934 214.586 132.695 212.251 132.446 210.308C132.082 207.46 129.929 205.166 127.106 204.617C123.038 203.826 117.05 203.688 112.115 207.767C110.295 209.272 109.4 211.621 109.768 213.955C110.053 215.768 110.523 218.141 111.27 220.57L112.493 220.353Z" fill="#021147"/>
<path d="M132.031 218.086C131.899 217.39 131.825 216.684 131.826 215.976C131.826 215.007 131.948 214.107 132.84 213.545C133.558 213.094 134.383 212.941 135.124 213.709C136.951 215.599 136.519 222.562 132.702 221.642L132.031 218.086Z" fill="#FAB083"/>
<path d="M133.044 219.575C133.168 219.527 133.25 219.401 133.236 219.262C133.034 217.208 134.659 215.71 134.675 215.695C134.799 215.582 134.809 215.39 134.697 215.265C134.585 215.141 134.393 215.131 134.268 215.243C134.192 215.312 132.398 216.957 132.631 219.322C132.648 219.49 132.796 219.611 132.964 219.595C132.992 219.591 133.019 219.585 133.044 219.575Z" fill="#FC8664"/>
<path d="M134.617 217.888C134.669 217.867 134.717 217.832 134.753 217.783C134.851 217.647 134.82 217.457 134.685 217.359C134.662 217.342 134.121 216.957 133.287 216.916C133.12 216.908 132.976 217.038 132.969 217.205C132.961 217.372 133.09 217.515 133.258 217.524C133.903 217.555 134.324 217.848 134.328 217.851C134.414 217.914 134.524 217.924 134.617 217.888Z" fill="#FC8664"/>
<path d="M141.67 314.66C141.473 315.552 141.13 316.463 140.606 317.371C139.026 320.098 135.787 322.819 129.775 325.005C117.311 329.532 93.4776 327.406 93.4776 327.406C93.7661 336.704 71.6086 368.026 71.6086 368.026L70.5204 367.322L69.496 366.659L65.2246 363.898C65.2246 363.898 79.8607 311.286 89.8125 309.779C125.02 304.451 140.912 308.133 140.912 308.133C141.675 309.89 142.217 312.202 141.67 314.66Z" fill="#3B3E7D"/>
<path d="M141.67 314.66C141.473 315.552 141.13 316.463 140.606 317.371C135.475 321.521 126.342 323.927 113.388 324.542C103.82 324.993 95.1115 324.27 92.8096 324.052C90.5349 340.062 73.9942 362.712 70.5204 367.323C70.1912 367.76 69.981 368.032 69.9089 368.126C69.7908 368.283 69.6099 368.363 69.4291 368.363C69.2995 368.363 69.1677 368.321 69.0569 368.234C68.7925 368.032 68.7444 367.649 68.9493 367.385C68.9681 367.361 69.1625 367.11 69.496 366.661C72.7868 362.273 89.7938 338.925 91.6827 323.319C91.7204 322.987 92.0193 322.752 92.3486 322.788C92.7396 322.831 131.279 326.862 141.67 314.66Z" fill="#18285D"/>
<path d="M66.0489 363.897L60.8398 369.993L67.0608 373.719L71.6081 368.026L66.0489 363.897Z" fill="#FAB083"/>
<path d="M73.16 367.901C72.3938 369.691 71.8596 370.268 70.647 371.153C70.647 371.153 66.7279 369.356 62.7012 365.844L65.2236 362.438C65.2236 362.438 68.2039 364.346 73.16 367.901Z" fill="#58619B"/>
<path d="M62.6064 370.411C62.6064 370.411 62.2865 367.664 61.1031 367.089C59.9198 366.515 47.1309 368.416 43.7962 367.256C40.4615 366.095 38.9729 369.314 40.2283 370.04C43.8463 372.132 63.8556 383.507 63.8556 383.507C63.8556 383.507 68.5231 376.914 68.9904 374.342C69.4598 371.771 64.6626 372.272 62.6064 370.411Z" fill="#707FFF"/>
<path d="M54.9553 372.474C55.0431 372.567 55.1675 372.625 55.3055 372.626C55.5742 372.627 55.7916 372.412 55.7947 372.143C55.7958 372.053 55.7989 369.931 54.9239 368.596C53.7615 366.818 51.9447 367.006 51.8683 367.016C51.6018 367.046 51.4105 367.288 51.4418 367.554C51.4722 367.821 51.7136 368.012 51.9802 367.981C52.0293 367.975 53.2827 367.865 54.1117 369.13C54.8246 370.218 54.8236 372.119 54.8236 372.138C54.8225 372.268 54.8727 372.386 54.9553 372.474Z" fill="white"/>
<path d="M56.8927 372.012C56.9805 372.105 57.1049 372.164 57.2429 372.165C57.5116 372.166 57.7301 371.951 57.7321 371.682C57.7332 371.592 57.7363 369.47 56.8624 368.135C55.6989 366.356 53.8831 366.545 53.8068 366.554C53.5403 366.584 53.349 366.825 53.3803 367.092C53.4106 367.358 53.6511 367.55 53.9187 367.518C53.9678 367.514 55.2212 367.403 56.0502 368.667C56.7662 369.76 56.761 371.657 56.761 371.676C56.76 371.806 56.8101 371.925 56.8927 372.012Z" fill="white"/>
<path d="M52.6994 372.453C52.7873 372.546 52.9116 372.604 53.0496 372.605C53.3183 372.607 53.5368 372.391 53.5389 372.123C53.5389 372.033 53.543 369.911 52.6681 368.576C51.5056 366.796 49.6898 366.986 49.6125 366.994C49.3459 367.024 49.1546 367.266 49.186 367.532C49.2163 367.799 49.4578 367.99 49.7243 367.959C49.7735 367.955 51.0279 367.844 51.8558 369.108C52.5709 370.2 52.5677 372.097 52.5667 372.116C52.5667 372.246 52.6169 372.365 52.6994 372.453Z" fill="white"/>
<path d="M350.406 360.921L348.951 367.576C348.951 367.576 352.939 370.534 355.756 368.933L357.222 362.435L350.406 360.921Z" fill="#FAB083"/>
<path d="M350.31 367.177C350.31 367.177 349.195 364.911 348.001 364.78C346.807 364.648 336.39 370.196 333.168 370.218C329.945 370.241 329.44 374.158 330.594 374.809C331.909 375.551 355.116 379.04 355.116 379.04C355.116 379.04 357.391 370.959 357.006 368.605C356.62 366.249 352.649 368.148 350.31 367.177Z" fill="#707FFF"/>
<path d="M344.36 371.291C344.463 371.344 344.589 371.357 344.708 371.315C344.939 371.234 345.061 370.981 344.981 370.75C344.954 370.673 344.308 368.847 343.147 367.966C341.604 366.792 340.099 367.511 340.035 367.541C339.816 367.649 339.725 367.914 339.832 368.134C339.94 368.353 340.206 368.444 340.426 368.336C340.467 368.317 341.511 367.839 342.611 368.672C343.557 369.389 344.137 371.025 344.143 371.042C344.182 371.154 344.263 371.24 344.36 371.291Z" fill="white"/>
<path d="M345.885 370.303C345.989 370.356 346.114 370.369 346.233 370.327C346.464 370.247 346.587 369.994 346.506 369.763C346.479 369.685 345.833 367.859 344.673 366.979C343.128 365.804 341.624 366.522 341.561 366.553C341.341 366.661 341.25 366.927 341.358 367.147C341.465 367.367 341.731 367.458 341.952 367.35C341.992 367.331 343.037 366.852 344.136 367.686C345.087 368.407 345.663 370.039 345.669 370.055C345.708 370.166 345.787 370.252 345.885 370.303Z" fill="white"/>
<path d="M342.415 371.962C342.518 372.015 342.643 372.028 342.763 371.986C342.994 371.906 343.116 371.653 343.035 371.422C343.008 371.344 342.362 369.518 341.202 368.637C339.657 367.462 338.154 368.181 338.09 368.211C337.87 368.319 337.779 368.586 337.887 368.805C337.995 369.025 338.26 369.116 338.481 369.008C338.522 368.989 339.567 368.51 340.666 369.343C341.615 370.065 342.192 371.697 342.198 371.713C342.237 371.825 342.317 371.912 342.415 371.962Z" fill="white"/>
<path d="M383.325 259.25C382.729 261.813 382.133 264.453 381.528 267.158C377.962 283.144 374.103 301.524 368.427 319.921C366.355 336.418 362.743 346.898 357.881 363.508C357.399 363.603 356.698 363.622 355.885 363.574C355.582 363.555 355.261 363.527 354.93 363.48C352.906 363.234 350.484 362.572 348.951 361.417C348.951 361.417 351.902 341.308 355.989 318.672C358.164 306.592 362.023 277.014 363.859 262.693C364.483 257.774 364.871 254.662 364.871 254.662L380.345 258.512L380.601 258.569L381.262 258.739L383.325 259.25Z" fill="#3B3E7D"/>
<path d="M383.324 259.25C382.728 261.813 382.132 264.453 381.527 267.158L363.857 262.694C364.482 257.775 364.869 254.663 364.869 254.663L380.344 258.513L380.599 258.57L381.261 258.74L383.324 259.25Z" fill="#18285D"/>
<path d="M381.259 258.729V258.739L366.598 319.636C366.579 319.797 363.741 339.736 355.881 363.574C355.578 363.555 355.257 363.527 354.926 363.478C362.796 339.642 365.643 319.664 365.671 319.456L380.342 258.512L380.597 258.568L381.259 258.729Z" fill="#18285D"/>
<path d="M394.117 360.356L394.709 369.099L401.093 367.569V360.356H394.117Z" fill="#FAB083"/>
<path d="M396.949 367.293C396.949 367.293 400.339 366.393 401.276 366.411C402.212 366.431 408.481 373.457 410.595 373.873C414.427 374.627 414.425 380.613 412.093 380.906C405.345 381.758 393.808 378.895 393.808 378.895C393.808 378.895 392.753 371.214 393.218 368.805C393.682 366.397 395.063 367.999 396.949 367.293Z" fill="#707FFF"/>
<path d="M402.528 373.855C402.408 373.881 402.277 373.86 402.166 373.786C401.952 373.642 401.896 373.351 402.04 373.138C402.088 373.067 403.236 371.378 404.655 370.791C406.543 370.008 407.884 371.144 407.941 371.192C408.136 371.36 408.157 371.656 407.988 371.851C407.82 372.047 407.524 372.068 407.328 371.898C407.292 371.867 406.356 371.1 405.011 371.655C403.855 372.132 402.824 373.645 402.813 373.66C402.745 373.763 402.641 373.83 402.528 373.855Z" fill="white"/>
<path d="M401.237 372.438C401.117 372.464 400.986 372.443 400.876 372.369C400.662 372.225 400.606 371.934 400.75 371.721C400.798 371.649 401.947 369.961 403.365 369.374C405.254 368.591 406.594 369.726 406.651 369.776C406.846 369.944 406.867 370.24 406.698 370.434C406.53 370.63 406.234 370.651 406.039 370.481C406.003 370.451 405.066 369.683 403.722 370.238C402.56 370.719 401.535 372.227 401.524 372.243C401.454 372.346 401.35 372.413 401.237 372.438Z" fill="white"/>
<path d="M404.33 375.06C404.209 375.086 404.079 375.066 403.969 374.991C403.755 374.847 403.698 374.556 403.843 374.342C403.891 374.271 405.038 372.582 406.458 371.995C408.347 371.212 409.687 372.348 409.744 372.396C409.939 372.565 409.96 372.86 409.791 373.055C409.622 373.251 409.327 373.272 409.132 373.102C409.096 373.072 408.159 372.304 406.815 372.859C405.653 373.339 404.628 374.849 404.617 374.864C404.548 374.969 404.444 375.036 404.33 375.06Z" fill="white"/>
<path d="M401.964 361.303C400.469 361.946 398.313 362.135 396.232 362.097C395.91 362.097 395.589 362.088 395.277 362.06C394.511 362.031 393.773 361.966 393.101 361.889L383.954 267.044L383.207 259.25L384.966 259.117L385.912 259.051L401.605 257.906C401.605 257.906 401.596 259.817 401.596 262.929C401.587 273.618 401.643 298.514 402.248 309.269C403.023 323.164 401.964 361.303 401.964 361.303Z" fill="#3B3E7D"/>
<path d="M401.604 257.906C401.604 257.906 401.595 259.817 401.595 262.929L383.953 267.044L383.206 259.25L384.965 259.117L385.911 259.051L401.604 257.906Z" fill="#18285D"/>
<path d="M396.229 362.098C395.907 362.098 395.586 362.089 395.273 362.061L384.963 259.118L385.909 259.052L396.229 362.098Z" fill="#18285D"/>
<path d="M397.796 203.823L402.015 217.375L406.634 230.258C407.378 232.955 410.355 234.343 412.898 233.182C412.943 233.162 412.987 233.142 413.032 233.122C417.427 231.044 415.004 222.426 415.004 222.426L414.174 222.361C413.836 221.415 412.923 219.009 411.762 215.985C411.622 215.613 411.474 215.23 411.326 214.843C411.079 214.2 410.823 213.537 410.563 212.856C410.192 211.894 409.809 210.902 409.421 209.903C406.574 202.515 404.214 194.499 404.214 194.499L402.248 188.662L397.796 203.823Z" fill="#FAB083"/>
<path d="M410.275 225.384C410.275 225.384 410.881 215.566 412.976 213.479C415.07 211.391 416.982 210.594 418.948 210.665C420.912 210.737 422.76 210.98 422.639 211.788C422.639 211.788 427.152 211.107 429.167 212.275C431.182 213.445 423.199 214.469 420.829 214.53C418.46 214.592 417.207 215.916 417.112 217.329C417.016 218.741 415.649 228.097 415.649 228.097L410.275 225.384Z" fill="#FAB083"/>
<path d="M398.448 207.426C398.448 207.426 405.904 231.231 407.611 232.848C409.318 234.466 413.153 236.12 415.246 231.765C417.339 227.409 417.757 215.778 417.757 215.778L412.551 213.356L411.737 215.92L402.329 188.603C402.329 188.603 398.987 205.63 398.448 207.426Z" fill="#707FFF"/>
<path d="M409.646 225.184C409.665 225.187 409.68 225.187 409.699 225.188C409.868 225.189 410.017 225.067 410.043 224.896C410.685 220.811 411.31 217.728 411.738 215.918C411.597 215.547 411.499 215.186 411.352 214.799C410.951 216.394 410.136 219.835 409.356 224.787C409.328 224.976 409.457 225.153 409.646 225.184Z" fill="#4F60D9"/>
<path d="M407.883 212.425L437.795 212.624C438.92 212.632 439.838 211.726 439.846 210.601V210.584C439.853 209.459 438.948 208.541 437.823 208.533L407.911 208.333C406.787 208.326 405.869 209.231 405.86 210.356V210.374C405.852 211.498 406.758 212.417 407.883 212.425Z" fill="#18285D"/>
<path d="M439.825 212.639L446.373 188.759C446.741 187.417 445.738 186.092 444.346 186.082L430.289 185.988C429.341 185.982 428.504 186.607 428.242 187.519L421.04 212.513L439.825 212.639Z" fill="#3B3E7D"/>
<path d="M428.241 187.518L421.099 212.306L419.492 212.296L426.634 187.507C426.899 186.596 427.734 185.969 428.683 185.976L430.29 185.986C429.341 185.98 428.505 186.606 428.241 187.518Z" fill="#18285D"/>
<path d="M431.77 200.362C431.395 201.938 432.369 203.224 433.946 203.234C435.524 203.244 437.109 201.975 437.484 200.4C437.86 198.825 436.885 197.539 435.307 197.528C433.73 197.518 432.146 198.787 431.77 200.362Z" fill="#58619B"/>
<path d="M318.897 179.241C318.309 179.31 317.746 179.246 317.267 178.994C316.002 178.332 314.95 177.675 314.343 177.276C313.982 177.029 313.775 176.886 313.775 176.886C313.775 176.886 313.761 176.886 313.75 176.896C313.612 176.92 312.931 177.02 311.785 176.367C310.496 175.626 309.824 174.377 309.987 173.69C310.145 173.003 311.039 172.826 311.039 172.826C311.039 172.826 310.589 172.173 310.812 171.462C311.034 170.746 312.461 170.38 312.461 170.38C312.461 170.38 312.061 169.481 312.777 168.894C313.459 168.326 314.974 169.403 315.108 169.487C314.905 169.274 310.362 164.514 311.71 164.484C313.088 164.454 317.873 168.834 318.1 168.934C318.323 169.037 319.488 168.958 320.618 169.111C321.749 169.26 322.308 169.778 322.817 171.486C323.326 173.196 323.164 175.953 323.164 175.953C323.514 176.215 324.191 176.825 324.597 177.121C324.597 177.121 324.846 177.256 324.871 177.27C325.721 177.76 339.05 185.211 343.322 188.545C343.328 188.545 343.328 188.55 343.332 188.55C343.485 188.668 343.727 188.767 344.048 188.856C348.438 190.046 367.358 188.619 367.358 188.619L368.337 198.966C368.337 198.966 349.338 200.092 340.279 195.582C333.133 192.027 321.681 181.32 321.681 181.32L318.897 179.241Z" fill="#FAB083"/>
<path d="M320.447 173.668C320.496 173.68 320.548 173.682 320.6 173.67C320.769 173.63 320.873 173.46 320.833 173.291L320.494 171.862C320.473 171.777 320.417 171.703 320.341 171.661C320.264 171.618 320.173 171.609 320.089 171.637C320.074 171.642 318.455 172.162 317.273 171.507C316.911 171.306 316.694 171.075 316.645 170.839C316.588 170.572 316.756 170.348 316.758 170.346C316.861 170.209 316.837 170.011 316.701 169.906C316.565 169.801 316.371 169.823 316.263 169.958C316.228 170.003 315.919 170.411 316.028 170.956C316.114 171.387 316.43 171.757 316.969 172.057C318.051 172.658 319.357 172.463 319.959 172.323L320.223 173.438C320.25 173.553 320.339 173.638 320.447 173.668Z" fill="#FC8664"/>
<path d="M313.748 176.893C313.765 176.887 313.774 176.885 313.774 176.885C313.774 176.885 313.98 177.031 314.345 177.272C315.045 176.786 315.285 176.046 315.489 175.424C315.664 174.884 315.818 174.416 316.199 174.147C316.595 173.871 316.821 173.509 316.945 173.138C317.068 172.783 317.093 172.417 317.079 172.112C317.074 171.998 317.066 171.891 317.053 171.799C317.023 171.557 316.977 171.395 316.972 171.374C316.924 171.206 316.75 171.108 316.583 171.157C316.417 171.203 316.32 171.377 316.367 171.544C316.368 171.547 316.374 171.572 316.383 171.618C316.426 171.807 316.512 172.327 316.378 172.827C316.298 173.128 316.136 173.424 315.837 173.634C315.284 174.021 315.082 174.635 314.889 175.23C314.67 175.903 314.461 176.546 313.748 176.893Z" fill="#FC8664"/>
<path d="M318.572 175.769C318.686 175.8 318.812 175.764 318.894 175.669C319.006 175.536 318.989 175.339 318.856 175.227C318.84 175.213 317.273 173.859 317.552 172.096C317.58 171.924 317.462 171.764 317.291 171.736C317.12 171.709 316.959 171.826 316.932 171.998C316.597 174.116 318.374 175.643 318.45 175.707C318.487 175.737 318.529 175.758 318.572 175.769Z" fill="#FC8664"/>
<path d="M403.191 258.198C395.716 259.927 389.676 260.81 383.71 260.864C383.674 260.864 383.637 260.868 383.602 260.864C383.565 260.868 383.529 260.864 383.491 260.864C377.524 260.81 371.488 259.927 364.011 258.198C362.964 244.797 367.543 236.314 367.034 221.292C367.03 221.163 367.024 221.031 367.02 220.901C366.997 220.252 366.968 219.609 366.936 218.968C366.877 217.75 366.805 216.545 366.721 215.36C366.677 214.71 366.628 214.065 366.578 213.427C365.547 200.449 363.491 190.167 364.606 188.76C365.817 187.231 368.897 185.428 372.026 183.754C374.995 182.171 378.007 180.702 379.516 179.697C381.013 180.35 382.206 180.706 383.491 180.701C383.525 180.701 383.564 180.701 383.602 180.697C383.637 180.701 383.675 180.701 383.71 180.701C384.994 180.707 386.188 180.351 387.687 179.697C389.087 180.629 391.725 181.928 394.415 183.346C397.686 185.069 401.035 186.968 402.328 188.602C403.491 190.069 401.406 201.312 400.482 215.112C400.441 215.732 400.403 216.355 400.366 216.985C400.287 218.345 400.221 219.726 400.173 221.122C400.171 221.178 400.168 221.235 400.167 221.29C400.148 221.842 400.136 222.385 400.131 222.919C399.986 236.943 404.197 245.288 403.191 258.198Z" fill="#707FFF"/>
<path d="M395.697 241.256H395.695C388.161 241.223 381.731 237.795 377.664 234.924C373.265 231.821 370.598 228.675 370.572 228.644C370.444 228.491 370.463 228.262 370.616 228.133C370.77 228.004 370.998 228.024 371.126 228.177C371.152 228.208 373.77 231.293 378.098 234.343C382.077 237.148 388.361 240.498 395.697 240.531C395.898 240.532 396.059 240.695 396.058 240.894C396.059 241.095 395.897 241.256 395.697 241.256Z" fill="#4F60D9"/>
<path d="M387.848 243.817C381.31 243.817 374.791 240.091 374.495 239.92C374.322 239.819 374.263 239.598 374.363 239.424C374.464 239.251 374.685 239.192 374.859 239.291C374.935 239.335 382.606 243.716 389.407 243.013C389.609 242.99 389.785 243.137 389.806 243.336C389.826 243.535 389.681 243.713 389.483 243.734C388.938 243.791 388.392 243.817 387.848 243.817Z" fill="#4F60D9"/>
<path d="M382.059 198.018C381.889 198.018 381.736 197.897 381.704 197.723C381.666 197.527 381.796 197.336 381.992 197.3C391.177 195.557 393.946 189.649 393.972 189.589C394.055 189.407 394.269 189.326 394.452 189.408C394.634 189.491 394.715 189.705 394.633 189.888C394.517 190.145 391.679 196.2 382.127 198.013C382.104 198.016 382.081 198.018 382.059 198.018Z" fill="#4F60D9"/>
<path d="M384.362 186.697C379.087 187.241 377.155 180.855 377.136 180.789C377.095 180.65 377.174 180.505 377.313 180.465C377.452 180.425 377.597 180.503 377.637 180.642C377.713 180.898 379.542 186.924 384.614 186.138C389.054 185.453 388.806 180.473 388.794 180.262C388.785 180.118 388.893 179.993 389.038 179.985C389.182 179.976 389.306 180.085 389.315 180.229C389.318 180.286 389.607 185.896 384.694 186.654C384.582 186.672 384.471 186.686 384.362 186.697Z" fill="white"/>
<path d="M373.612 165.397C373.612 165.397 369.271 157.976 372.931 152.247C376.592 146.517 384.368 147.057 386.382 147.508C388.397 147.959 399.993 153.396 392.978 166.582L373.612 165.397Z" fill="#021147"/>
<path d="M374.338 163.298C374.338 163.298 372.581 160.955 371.274 162.892C369.968 164.829 371.815 170.551 375.014 169.155L374.338 163.298Z" fill="#FC8664"/>
<path d="M374.314 167.386C374.196 167.386 374.087 167.308 374.054 167.188C373.559 165.422 371.728 164.706 371.709 164.698C371.57 164.645 371.5 164.489 371.552 164.35C371.606 164.211 371.762 164.14 371.901 164.194C371.986 164.226 374.003 165.009 374.574 167.043C374.614 167.186 374.53 167.336 374.386 167.377C374.363 167.383 374.338 167.386 374.314 167.386Z" fill="#FD664D"/>
<path d="M372.468 166.496C372.417 166.496 372.367 166.482 372.321 166.453C372.196 166.372 372.159 166.205 372.241 166.079C372.254 166.058 372.578 165.564 373.256 165.261C373.392 165.2 373.552 165.261 373.613 165.397C373.674 165.533 373.613 165.693 373.477 165.755C372.954 165.989 372.699 166.368 372.697 166.371C372.643 166.452 372.556 166.496 372.468 166.496Z" fill="#FD664D"/>
<path d="M392.446 163.298C392.446 163.298 394.203 160.955 395.51 162.892C396.816 164.829 394.969 170.551 391.771 169.155L392.446 163.298Z" fill="#FC8664"/>
<path d="M392.47 167.386C392.588 167.386 392.697 167.308 392.73 167.188C393.225 165.422 395.056 164.706 395.075 164.698C395.214 164.645 395.285 164.489 395.232 164.35C395.178 164.211 395.022 164.14 394.883 164.194C394.798 164.226 392.781 165.009 392.21 167.043C392.17 167.186 392.254 167.336 392.398 167.377C392.421 167.383 392.446 167.386 392.47 167.386Z" fill="#FD664D"/>
<path d="M394.316 166.496C394.366 166.496 394.417 166.482 394.462 166.453C394.588 166.372 394.624 166.205 394.543 166.079C394.529 166.058 394.205 165.564 393.528 165.261C393.392 165.2 393.232 165.261 393.17 165.397C393.109 165.533 393.17 165.693 393.306 165.755C393.83 165.989 394.085 166.368 394.087 166.371C394.14 166.452 394.227 166.496 394.316 166.496Z" fill="#FD664D"/>
<path d="M387.717 174.007V179.697C387.717 179.697 386.02 182.594 383.724 182.792C381.432 182.992 379.395 180.297 379.395 180.297V174.406L387.717 174.007Z" fill="#FAB083"/>
<path d="M387.717 174.007V176.531C386.177 178.241 383.442 178.667 379.395 178.069V174.406L387.717 174.007Z" fill="#FC8664"/>
<path d="M393.717 159.394C393.612 161.605 393.401 164.371 392.979 166.582C392.874 167.134 392.755 167.652 392.623 168.118C391.425 172.31 388.43 179.502 380.044 176.506C376.34 175.184 374.624 171.058 373.859 166.863C373.34 164.013 373.261 161.135 373.299 159.078C373.34 156.978 374.486 155.059 376.313 154.023C381.263 151.217 386.486 152.264 389.924 153.585C392.311 154.501 393.839 156.844 393.717 159.394Z" fill="#FAB083"/>
<path d="M381.132 151.292C381.132 151.292 392.197 169.04 393.723 162.531C395.885 153.306 389.275 147.598 381.132 151.292Z" fill="#021147"/>
<path d="M380.671 151.292C373.307 151.346 369.644 159.713 373.059 160.704C377.812 162.083 381.932 155.356 383.2 153.023C382.347 152.46 381.493 151.898 380.671 151.292Z" fill="#021147"/>
<path d="M394.087 147.311C394.087 151.333 390.827 154.593 386.805 154.593C382.784 154.593 379.523 151.333 379.523 147.311C379.523 143.29 382.784 140.029 386.805 140.029C390.827 140.028 394.087 143.289 394.087 147.311Z" fill="#021147"/>
<path d="M374.586 159.907C374.586 159.907 375.159 162.133 374.377 163.63C373.595 165.126 374.024 167.692 374.377 170.575C374.377 170.575 373.134 168.818 373.062 166.002C372.989 163.186 373.449 160.844 373.062 159.718L374.586 159.907Z" fill="#021147"/>
<path d="M391.972 159.907C391.972 159.907 391.399 162.133 392.181 163.63C392.963 165.126 392.533 167.692 392.181 170.575C392.181 170.575 393.424 168.818 393.496 166.002C393.568 163.186 393.108 160.844 393.496 159.718L391.972 159.907Z" fill="#021147"/>
<path d="M379.699 163.63C379.699 164.237 379.385 164.73 378.999 164.73C378.613 164.73 378.3 164.237 378.3 163.63C378.3 163.023 378.613 162.53 378.999 162.53C379.386 162.53 379.699 163.023 379.699 163.63Z" fill="#021147"/>
<path d="M388.335 163.63C388.335 164.237 388.022 164.73 387.636 164.73C387.25 164.73 386.937 164.237 386.937 163.63C386.937 163.023 387.25 162.53 387.636 162.53C388.022 162.53 388.335 163.023 388.335 163.63Z" fill="#021147"/>
<path d="M377.615 160.356C378.196 160.192 379.368 159.911 380.606 159.907C380.932 159.906 381.181 160.196 381.123 160.517L381.121 160.525C381.075 160.781 380.846 160.962 380.587 160.949C379.744 160.91 377.534 161.029 376.491 161.451C376.469 161.269 376.577 161.071 376.729 160.895C376.959 160.627 377.275 160.451 377.615 160.356Z" fill="#021147"/>
<path d="M388.912 160.378C388.331 160.214 387.158 159.934 385.921 159.93C385.595 159.929 385.346 160.218 385.404 160.539L385.405 160.548C385.451 160.804 385.68 160.984 385.939 160.972C386.781 160.932 388.991 161.051 390.035 161.474C390.056 161.292 389.949 161.093 389.796 160.918C389.567 160.651 389.252 160.474 388.912 160.378Z" fill="#021147"/>
<path d="M383.485 168.648C383.278 168.648 383.07 168.611 382.898 168.508C382.74 168.412 382.543 168.221 382.505 167.847C382.402 166.854 382.656 163.739 382.667 163.607C382.679 163.459 382.809 163.348 382.958 163.359C383.107 163.372 383.218 163.502 383.205 163.651C383.202 163.682 382.944 166.848 383.042 167.79C383.059 167.955 383.126 168.013 383.175 168.042C383.429 168.194 384.015 168.039 384.259 167.94C384.397 167.884 384.555 167.95 384.611 168.088C384.668 168.226 384.602 168.384 384.464 168.441C384.394 168.471 383.941 168.648 383.485 168.648Z" fill="#FC8664"/>
<path d="M380.054 170.354C380.258 171.383 380.937 173.274 383.225 173.274C385.519 173.274 386.163 171.545 386.383 170.354H380.054Z" fill="white"/>
<path d="M383.192 174.853C382.531 174.853 381.948 174.497 381.924 174.482C381.797 174.403 381.758 174.237 381.836 174.11C381.915 173.983 382.081 173.943 382.207 174.022C382.211 174.025 382.688 174.312 383.191 174.312C383.736 174.312 384.224 174.024 384.229 174.021C384.357 173.943 384.523 173.985 384.6 174.113C384.676 174.24 384.637 174.405 384.509 174.483C384.485 174.498 383.891 174.853 383.192 174.853Z" fill="#FC8664"/>
<path d="M324.606 176.821L320.843 181.788C320.843 181.788 335.024 193.939 342.03 196.341C349.037 198.744 365.291 200.971 365.291 200.971C366.474 196.905 365.923 192.833 364.609 188.759C364.609 188.759 347.875 189.156 343.067 186.73C332.766 181.534 324.606 176.821 324.606 176.821Z" fill="#707FFF"/>
<path d="M319.52 55.8849C319.426 55.8943 319.329 55.8817 319.236 55.843C318.25 55.427 317.672 55.2326 317.666 55.2315C317.364 55.1301 317.201 54.804 317.301 54.5018C317.402 54.1997 317.729 54.0367 318.031 54.137C318.056 54.1454 318.652 54.345 319.683 54.781C319.977 54.9043 320.114 55.243 319.991 55.5368C319.907 55.7354 319.723 55.8629 319.52 55.8849Z" fill="#DBE6F7"/>
<path d="M348.92 86.8249C349.312 87.8713 349.68 88.9511 350.012 90.0331C350.095 90.3017 350.355 90.4658 350.624 90.4376C350.66 90.4334 350.697 90.4261 350.732 90.4157C351.037 90.3216 351.208 89.9996 351.114 89.6954C350.775 88.5905 350.4 87.4897 350 86.4214C349.888 86.1234 349.556 85.9718 349.257 86.0837C348.958 86.1945 348.808 86.5269 348.92 86.8249Z" fill="#DBE6F7"/>
<path d="M350.911 93.2996C351.175 94.3837 351.415 95.4991 351.621 96.6165C351.676 96.9145 351.951 97.1162 352.248 97.0849C352.263 97.0838 352.278 97.0807 352.293 97.0786C352.607 97.0201 352.814 96.719 352.755 96.4064C352.544 95.268 352.3 94.1317 352.032 93.0268C351.956 92.7174 351.644 92.5282 351.334 92.6034C351.026 92.6776 350.836 92.9902 350.911 93.2996Z" fill="#DBE6F7"/>
<path d="M352.645 99.3208C352.329 99.3626 352.106 99.6512 352.148 99.9669C352.216 100.488 352.277 101.015 352.332 101.533C352.395 102.13 352.451 102.74 352.498 103.344C352.523 103.662 352.8 103.899 353.118 103.874C353.123 103.873 353.128 103.873 353.133 103.872C353.443 103.84 353.672 103.566 353.648 103.253C353.6 102.639 353.542 102.018 353.478 101.41C353.423 100.884 353.36 100.347 353.291 99.8163C353.25 99.5048 352.969 99.2842 352.659 99.3166C352.655 99.3208 352.65 99.3208 352.645 99.3208Z" fill="#DBE6F7"/>
<path d="M347.633 83.6898C347.737 83.923 347.978 84.0536 348.22 84.0285C348.279 84.0223 348.338 84.0066 348.395 83.9815C348.685 83.8519 348.816 83.51 348.686 83.2194C348.216 82.1688 347.708 81.1214 347.174 80.1063C347.025 79.8241 346.677 79.7164 346.394 79.8638C346.113 80.0123 346.004 80.3614 346.152 80.6426C346.674 81.6367 347.173 82.6623 347.633 83.6898Z" fill="#DBE6F7"/>
<path d="M322.3 57.2751C323.291 57.7811 324.29 58.332 325.271 58.9132C325.382 58.9791 325.506 59.0031 325.625 58.9906C325.801 58.9718 325.965 58.8735 326.061 58.7104C326.223 58.4365 326.132 58.0821 325.858 57.9201C324.857 57.3274 323.836 56.764 322.824 56.2476C322.54 56.1033 322.192 56.2151 322.048 56.4984C321.904 56.7828 322.017 57.1309 322.3 57.2751Z" fill="#DBE6F7"/>
<path d="M330.898 62.7077C331.02 62.8008 331.168 62.8374 331.309 62.8227C331.462 62.8071 331.607 62.7307 331.706 62.599C331.9 62.346 331.851 61.9844 331.598 61.791C330.685 61.0937 329.739 60.4142 328.786 59.7724C328.522 59.5947 328.164 59.6637 327.986 59.9281C327.807 60.1926 327.877 60.5512 328.141 60.7289C329.075 61.3571 330.002 62.0241 330.898 62.7077Z" fill="#DBE6F7"/>
<path d="M340.59 72.1515C340.718 72.3104 340.912 72.3847 341.101 72.3648C341.207 72.3533 341.311 72.3125 341.4 72.2414C341.649 72.0428 341.69 71.679 341.49 71.4302C340.773 70.5354 340.017 69.6489 339.243 68.797C339.028 68.5618 338.663 68.544 338.427 68.7583C338.191 68.9726 338.174 69.3374 338.389 69.5726C339.147 70.4079 339.888 71.2755 340.59 72.1515Z" fill="#DBE6F7"/>
<path d="M336.034 67.1352C336.162 67.2596 336.333 67.3129 336.497 67.2952C336.627 67.2816 336.752 67.2241 336.849 67.1237C337.071 66.8958 337.067 66.53 336.838 66.3083C336.017 65.5097 335.159 64.7236 334.285 63.9709C334.044 63.7629 333.68 63.7901 333.472 64.0315C333.264 64.273 333.291 64.6368 333.533 64.8448C334.389 65.5829 335.23 66.3533 336.034 67.1352Z" fill="#DBE6F7"/>
<path d="M344.481 77.6975C344.601 77.894 344.819 77.9933 345.034 77.9703C345.116 77.9619 345.198 77.9348 345.273 77.8888C345.545 77.7225 345.631 77.3671 345.464 77.0953C344.865 76.1148 344.228 75.1405 343.568 74.1997C343.385 73.9394 343.025 73.8756 342.764 74.0586C342.504 74.2415 342.44 74.6011 342.623 74.8624C343.269 75.7834 343.894 76.7378 344.481 77.6975Z" fill="#DBE6F7"/>
<path d="M294.908 38.8107L290.261 56.3721L315.684 63.0994L320.331 45.5381L294.908 38.8107Z" fill="#4F60D9"/>
<path d="M307.67 51.903L314.954 62.8971L315.69 63.0915L315.809 62.6441L308.381 51.4326L307.67 51.903Z" fill="#1D38C8"/>
<path d="M290.37 55.9764L290.268 56.3653L291.07 56.5775L302.839 50.6252L302.454 49.8652L290.37 55.9764Z" fill="#1D38C8"/>
<path d="M320.339 45.5307L304.636 53.4723L294.915 38.8027L320.339 45.5307Z" fill="#707FFF"/>
<path d="M392.972 77.1404C389.467 77.1404 386.615 74.2887 386.615 70.7836C386.615 67.2785 389.467 64.4268 392.972 64.4268C396.477 64.4268 399.329 67.2785 399.329 70.7836C399.329 74.2887 396.477 77.1404 392.972 77.1404ZM392.972 66.4213C390.567 66.4213 388.61 68.3782 388.61 70.7836C388.61 73.189 390.567 75.1459 392.972 75.1459C395.377 75.1459 397.334 73.189 397.334 70.7836C397.334 68.3782 395.377 66.4213 392.972 66.4213Z" fill="#707FFF"/>
<path d="M425.28 83.6063C421.775 83.6063 418.923 80.7545 418.923 77.2494C418.923 73.7443 421.775 70.8926 425.28 70.8926C428.785 70.8926 431.637 73.7443 431.637 77.2494C431.635 80.7545 428.784 83.6063 425.28 83.6063ZM425.28 72.8871C422.874 72.8871 420.917 74.844 420.917 77.2494C420.917 79.6548 422.874 81.6117 425.28 81.6117C427.685 81.6117 429.642 79.6548 429.642 77.2494C429.641 74.844 427.685 72.8871 425.28 72.8871Z" fill="#4F60D9"/>
<path d="M440.587 96.5847C440.036 96.5847 439.59 96.1383 439.59 95.5874V91.1906C439.59 90.6397 440.036 90.1934 440.587 90.1934C441.138 90.1934 441.584 90.6397 441.584 91.1906V95.5874C441.584 96.1394 441.138 96.5847 440.587 96.5847Z" fill="#707FFF"/>
<path d="M440.587 104.28C440.036 104.28 439.59 103.834 439.59 103.283V98.8859C439.59 98.335 440.036 97.8887 440.587 97.8887C441.138 97.8887 441.584 98.335 441.584 98.8859V103.283C441.584 103.834 441.138 104.28 440.587 104.28Z" fill="#707FFF"/>
<path d="M446.759 98.2348H442.809C442.258 98.2348 441.812 97.7884 441.812 97.2375C441.812 96.6866 442.258 96.2402 442.809 96.2402H446.759C447.31 96.2402 447.756 96.6866 447.756 97.2375C447.756 97.7884 447.31 98.2348 446.759 98.2348Z" fill="#707FFF"/>
<path d="M438.366 98.2348H434.415C433.864 98.2348 433.418 97.7884 433.418 97.2375C433.418 96.6866 433.864 96.2402 434.415 96.2402H438.366C438.917 96.2402 439.363 96.6866 439.363 97.2375C439.362 97.7884 438.916 98.2348 438.366 98.2348Z" fill="#707FFF"/>
<path d="M406.637 89.4148C406.086 89.4148 405.64 88.9684 405.64 88.4175V84.0207C405.64 83.4698 406.086 83.0234 406.637 83.0234C407.188 83.0234 407.634 83.4698 407.634 84.0207V88.4175C407.634 88.9684 407.188 89.4148 406.637 89.4148Z" fill="#4F60D9"/>
<path d="M406.637 97.1101C406.086 97.1101 405.64 96.6637 405.64 96.1128V91.716C405.64 91.1651 406.086 90.7188 406.637 90.7188C407.188 90.7188 407.634 91.1651 407.634 91.716V96.1128C407.634 96.6637 407.188 97.1101 406.637 97.1101Z" fill="#4F60D9"/>
<path d="M412.809 91.0629H408.859C408.308 91.0629 407.861 90.6165 407.861 90.0656C407.861 89.5147 408.308 89.0684 408.859 89.0684H412.809C413.36 89.0684 413.806 89.5147 413.806 90.0656C413.806 90.6176 413.36 91.0629 412.809 91.0629Z" fill="#4F60D9"/>
<path d="M404.415 91.0629H400.465C399.914 91.0629 399.468 90.6165 399.468 90.0656C399.468 89.5147 399.914 89.0684 400.465 89.0684H404.415C404.966 89.0684 405.413 89.5147 405.413 90.0656C405.412 90.6176 404.965 91.0629 404.415 91.0629Z" fill="#4F60D9"/>
<path d="M21.1023 218.973C21.1023 222.478 18.2506 225.33 14.7455 225.33C11.2404 225.33 8.38867 222.478 8.38867 218.973C8.38867 215.468 11.2404 212.616 14.7455 212.616C18.2506 212.617 21.1023 215.469 21.1023 218.973ZM10.3832 218.973C10.3832 221.378 12.3401 223.335 14.7455 223.335C17.1509 223.335 19.1078 221.378 19.1078 218.973C19.1078 216.568 17.1509 214.611 14.7455 214.611C12.3401 214.611 10.3832 216.568 10.3832 218.973Z" fill="#707FFF"/>
<path d="M27.5691 186.667C27.5691 190.172 24.7174 193.024 21.2123 193.024C17.7072 193.024 14.8555 190.172 14.8555 186.667C14.8555 183.162 17.7072 180.311 21.2123 180.311C24.7174 180.311 27.5691 183.162 27.5691 186.667ZM16.85 186.667C16.85 189.073 18.8069 191.03 21.2123 191.03C23.6177 191.03 25.5746 189.073 25.5746 186.667C25.5746 184.262 23.6177 182.305 21.2123 182.305C18.8069 182.305 16.85 184.262 16.85 186.667Z" fill="#4F60D9"/>
<path d="M40.5476 171.359C40.5476 171.91 40.1012 172.356 39.5503 172.356H35.1535C34.6026 172.356 34.1562 171.91 34.1562 171.359C34.1562 170.808 34.6026 170.361 35.1535 170.361H39.5503C40.1012 170.362 40.5476 170.809 40.5476 171.359Z" fill="#707FFF"/>
<path d="M48.2429 171.359C48.2429 171.91 47.7965 172.356 47.2456 172.356H42.8488C42.2979 172.356 41.8516 171.91 41.8516 171.359C41.8516 170.808 42.2979 170.361 42.8488 170.361H47.2456C47.7965 170.362 48.2429 170.809 48.2429 171.359Z" fill="#707FFF"/>
<path d="M42.1987 165.187V169.137C42.1987 169.688 41.7523 170.134 41.2014 170.134C40.6505 170.134 40.2041 169.688 40.2041 169.137V165.187C40.2041 164.636 40.6505 164.189 41.2014 164.189C41.7523 164.189 42.1987 164.637 42.1987 165.187Z" fill="#707FFF"/>
<path d="M42.1987 173.581V177.532C42.1987 178.083 41.7523 178.529 41.2014 178.529C40.6505 178.529 40.2041 178.083 40.2041 177.532V173.581C40.2041 173.03 40.6505 172.584 41.2014 172.584C41.7523 172.584 42.1987 173.03 42.1987 173.581Z" fill="#707FFF"/>
<path d="M33.3767 205.31C33.3767 205.861 32.9303 206.307 32.3794 206.307H27.9826C27.4317 206.307 26.9854 205.861 26.9854 205.31C26.9854 204.759 27.4317 204.312 27.9826 204.312H32.3794C32.9303 204.312 33.3767 204.759 33.3767 205.31Z" fill="#4F60D9"/>
<path d="M41.072 205.31C41.072 205.861 40.6256 206.307 40.0747 206.307H35.6779C35.127 206.307 34.6807 205.861 34.6807 205.31C34.6807 204.759 35.127 204.312 35.6779 204.312H40.0747C40.6256 204.312 41.072 204.759 41.072 205.31Z" fill="#4F60D9"/>
<path d="M35.0258 199.137V203.087C35.0258 203.638 34.5794 204.085 34.0285 204.085C33.4776 204.085 33.0312 203.638 33.0312 203.087V199.137C33.0312 198.586 33.4776 198.14 34.0285 198.14C34.5805 198.14 35.0258 198.587 35.0258 199.137Z" fill="#4F60D9"/>
<path d="M35.0258 207.531V211.482C35.0258 212.033 34.5794 212.479 34.0285 212.479C33.4776 212.479 33.0312 212.033 33.0312 211.482V207.531C33.0312 206.981 33.4776 206.534 34.0285 206.534C34.5805 206.534 35.0258 206.981 35.0258 207.531Z" fill="#4F60D9"/>
<path d="M121.379 67.7693V87.4597C121.379 90.0627 123.491 92.1743 126.093 92.1743H161.846L172.639 96.0463C173.747 96.4446 174.808 95.3554 174.384 94.2588L170.301 83.7142V67.7683C170.301 65.1653 168.189 63.0537 165.584 63.0537H126.093C123.491 63.0548 121.379 65.1664 121.379 67.7693Z" fill="#707FFF"/>
<path d="M152.439 78.1746C152.439 80.0584 153.967 81.5856 155.849 81.5856C157.732 81.5856 159.26 80.0584 159.26 78.1746C159.26 76.2909 157.733 74.7646 155.849 74.7646C153.966 74.7646 152.439 76.2909 152.439 78.1746Z" fill="#4F60D9"/>
<path d="M141.643 78.1746C141.643 80.0584 143.17 81.5856 145.053 81.5856C146.936 81.5856 148.463 80.0584 148.463 78.1746C148.463 76.2909 146.936 74.7646 145.053 74.7646C143.17 74.7636 141.643 76.2909 141.643 78.1746Z" fill="#4F60D9"/>
<path d="M130.847 78.1746C130.847 80.0584 132.374 81.5856 134.258 81.5856C136.141 81.5856 137.669 80.0584 137.669 78.1746C137.669 76.2909 136.141 74.7646 134.258 74.7646C132.373 74.7636 130.847 76.2909 130.847 78.1746Z" fill="#4F60D9"/>
</svg>
