<svg width="105" height="74" viewBox="0 0 105 74" fill="none" xmlns="http://www.w3.org/2000/svg">
<path d="M29.7471 5.43985C30.1498 5.43436 30.5525 5.43039 30.9553 5.42709C31.1796 5.42473 31.4038 5.42236 31.6349 5.41992C32.1889 5.43985 32.1889 5.43985 32.3924 5.64387C32.441 7.17861 32.441 7.17861 32.1889 7.6841C32.3458 8.08769 32.3458 8.08769 32.6015 8.53047C32.6947 8.70072 32.788 8.87096 32.8841 9.04636C33.0373 9.31883 33.0373 9.31883 33.1937 9.59681C33.2971 9.78254 33.4006 9.96826 33.5072 10.1596C34.2949 11.5595 35.1224 12.9045 36.0552 14.2128C36.1445 14.3389 36.2338 14.4649 36.3258 14.5948C36.6197 15.0085 36.9156 15.4207 37.2126 15.8323C37.3045 15.9603 37.3964 16.0883 37.4912 16.2202C38.2655 17.2786 39.0977 18.3843 40.3285 18.9054C41.7014 19.0908 42.9196 18.793 44.2385 18.4296C44.9335 18.2625 45.52 18.2448 46.2296 18.2933C45.8982 19.763 45.4997 20.9569 44.6017 22.1697C44.4795 22.3359 44.3573 22.5022 44.2313 22.6734C43.4801 23.654 42.702 24.4968 41.7553 25.2874C41.1666 25.7917 40.6292 26.3416 40.0868 26.8949C39.7872 27.1999 39.4802 27.4977 39.1711 27.7931C38.4012 28.6068 37.7288 29.5032 37.2761 30.5347C37.0727 29.9226 37.0727 29.9226 37.2555 29.4882C38.0782 28.1288 39.0417 26.9989 40.125 25.8421C40.3638 25.5713 40.6013 25.2994 40.8372 25.026C41.2215 24.5816 41.6101 24.1442 42.0088 23.7126C43.281 22.3319 44.1805 20.9932 45.0087 19.3134C44.8461 19.3723 44.6834 19.4312 44.5159 19.4919C42.7916 20.0763 41.019 20.6042 39.2729 19.849C37.7891 18.4605 36.5568 16.9314 35.4447 15.2329C35.3278 15.0544 35.2108 14.8758 35.0902 14.6918C34.7271 14.1279 34.3721 13.5598 34.0203 12.9887C33.9005 12.7954 33.7806 12.6021 33.6571 12.4029C31.375 8.61627 31.375 8.61627 31.375 7.07203C31.5764 7.07203 31.7779 7.07203 31.9854 7.07203C31.9854 6.66806 31.9854 6.2641 31.9854 5.84789C31.2468 5.84789 30.5081 5.84789 29.7471 5.84789C29.7471 5.71324 29.7471 5.57858 29.7471 5.43985Z" fill="#5A5858"/>
<path d="M19.1794 1.11846C19.522 1.3464 19.522 1.3464 19.9798 1.97122C19.9941 2.41194 19.9941 2.41194 19.9544 2.88932C19.9084 3.3642 19.9084 3.3642 19.9798 3.80742C20.4354 4.3123 20.9948 4.55134 21.6077 4.82754C21.8079 4.92248 22.008 5.01742 22.2142 5.11524C22.7552 5.36713 23.2986 5.61052 23.8461 5.84765C23.9049 5.68354 23.9636 5.51943 24.0242 5.35034C24.2531 4.82754 24.2531 4.82754 24.6601 4.62351C26.1794 4.55097 26.1794 4.55097 26.8984 5.03156C26.7586 5.04392 26.6188 5.05628 26.4748 5.06902C26.1997 5.09466 26.1997 5.09466 25.9191 5.12082C25.6465 5.14567 25.6465 5.14567 25.3683 5.17103C24.8376 5.2223 24.8376 5.2223 24.2531 5.4396C24.1039 5.85073 24.1039 5.85073 24.0496 6.2557C23.0646 6.63337 22.3405 6.15601 21.4305 5.74962C19.586 4.85153 19.586 4.85153 18.9624 4.21547C18.8244 3.39899 18.9074 2.95256 19.1659 2.17524C17.2927 2.01678 16.0069 2.2209 14.3081 2.94869C13.035 3.46878 11.8877 3.53044 10.5224 3.52211C9.16635 3.67585 8.26981 4.67198 7.34366 5.60219C7.23037 5.7149 7.11707 5.82762 7.00035 5.94375C6.76232 6.18123 6.52482 6.41925 6.28781 6.65776C5.92846 7.0187 5.56649 7.37684 5.20425 7.73486C3.62965 9.3039 2.31822 10.6323 1.90749 12.8864C1.86002 13.1368 1.81254 13.3872 1.76362 13.6452C1.73136 13.8324 1.69909 14.0197 1.66585 14.2126C1.5987 14.2126 1.53155 14.2126 1.46236 14.2126C1.33038 11.5464 2.08956 9.83148 3.86607 7.85122C4.38977 7.27847 4.92184 6.71382 5.45443 6.1494C5.81721 5.76009 6.16537 5.35932 6.51142 4.95505C8.4438 2.72461 8.4438 2.72461 9.39842 2.37926C9.92284 2.34885 10.4382 2.33392 10.9627 2.32826C12.3024 2.28775 13.406 2.04216 14.651 1.55042C16.1378 0.971109 17.6162 0.496294 19.1794 1.11846Z" fill="#5A5858"/>
<path d="M0.241643 16.8647C0.445131 17.2728 0.445131 17.2728 0.483285 17.7446C0.716609 18.5184 1.24427 18.8538 1.86955 19.313C2.80292 20.0312 3.35298 20.552 3.76454 21.672C4.18488 22.5305 4.45228 22.6477 5.32886 22.9854C6.55818 23.0512 7.85853 22.9766 8.99165 22.4626C10.1459 21.9613 11.4269 22.006 12.6544 22.1693C13.071 22.3989 13.071 22.3989 13.4175 22.6794C14.6245 23.6298 16.4992 23.2592 17.9451 23.1895C17.8185 24.0126 17.6494 24.8074 17.4364 25.6122C17.1908 26.5756 17.0226 27.505 16.9277 28.4941C16.8605 28.4941 16.7934 28.4941 16.7242 28.4941C16.7187 27.933 16.7147 27.372 16.7115 26.8109C16.7098 26.6523 16.7081 26.4937 16.7063 26.3303C16.7057 26.1764 16.705 26.0226 16.7043 25.8641C16.7033 25.723 16.7022 25.582 16.7011 25.4367C16.7254 25.0053 16.8105 24.6245 16.9277 24.2096C16.7215 24.219 16.5154 24.2285 16.3029 24.2383C16.0279 24.2459 15.7529 24.2533 15.4778 24.2606C15.3425 24.2674 15.2071 24.2743 15.0677 24.2813C14.0058 24.3022 13.4994 23.9998 12.6544 23.3935C11.2262 23.0848 9.8357 23.522 8.46698 23.9159C6.80431 24.3855 5.26426 24.4318 3.70095 23.5975C3.23679 23.0692 2.97115 22.5888 2.71609 21.9358C2.26389 20.7936 1.75877 20.1968 0.806005 19.4262C0.16983 18.867 0.0557049 18.347 0 17.5278C0.0381541 17.0688 0.0381541 17.0688 0.241643 16.8647Z" fill="#5A5858"/>
<path d="M18.5552 30.5342C18.9003 30.8694 19.2373 31.2093 19.5726 31.5543C19.7145 31.6974 19.8564 31.8404 20.0026 31.9878C20.2242 32.2214 20.2242 32.2214 20.4502 32.4596C20.5921 32.6067 20.734 32.7537 20.8802 32.9051C21.2903 33.5266 21.288 33.8818 21.2005 34.6146C21.0225 35.0426 21.0225 35.0426 20.7935 35.4435C19.7833 37.5945 20.5115 39.8845 21.2387 42.0105C21.3175 42.2556 21.3963 42.5007 21.4775 42.7532C22.0067 44.3526 22.5724 45.8949 23.6933 47.1748C24.1971 47.8785 24.1949 48.4465 24.2529 49.3043C24.6558 49.3716 25.0587 49.4389 25.4738 49.5083C25.4738 49.643 25.4738 49.7776 25.4738 49.9164C24.1257 49.9674 24.1257 49.9674 23.4389 49.5083C23.3403 49.1242 23.3403 49.1242 23.2863 48.6667C23.1361 47.8733 22.9096 47.4554 22.3579 46.8688C20.5218 44.9061 20.0345 42.2505 19.3691 39.7152C19.3309 39.5712 19.2927 39.4271 19.2534 39.2787C19.0017 38.1896 19.0836 36.9123 19.3691 35.8388C19.5034 35.8388 19.6377 35.8388 19.7761 35.8388C19.8055 35.6747 19.8349 35.5106 19.8651 35.3415C19.9796 34.8187 19.9796 34.8187 20.1831 34.6146C20.3108 33.5194 20.0022 32.9926 19.3691 32.1154C18.5552 30.9762 18.5552 30.9762 18.5552 30.5342Z" fill="#969797"/>
<path d="M42.9744 35.2266C43.1087 35.2266 43.243 35.2266 43.3813 35.2266C43.3268 35.3276 43.2722 35.4285 43.216 35.5326C42.9674 36.0112 42.9674 36.0112 42.883 36.4316C42.7577 36.9091 42.6384 37.2625 42.3639 37.6748C41.8493 37.9298 41.3312 38.0965 40.7869 38.2773C40.2523 38.4671 40.2523 38.4671 40.0111 39.1668C39.9533 39.6548 39.902 40.1437 39.8584 40.6332C39.7207 41.336 39.6228 41.5198 39.1971 42.0486C38.5719 42.8411 38.6147 43.4201 38.7011 44.4076C38.4996 44.3403 38.2982 44.2729 38.0906 44.2036C37.7839 43.0248 37.9983 42.4068 38.4889 41.3122C38.8055 40.4513 38.8808 39.5805 38.9682 38.671C39.1369 37.9617 39.3447 37.7025 39.922 37.2668C40.3592 37.1552 40.3592 37.1552 40.8123 37.1138C41.6526 36.9666 41.959 36.7108 42.4529 36.0172C42.545 35.8693 42.6371 35.7215 42.7319 35.5693C42.8119 35.4562 42.8919 35.3431 42.9744 35.2266Z" fill="#5A5858"/>
<path d="M33.6138 41.3477C33.8173 41.7557 33.8173 41.7557 33.6864 42.1683C33.6155 42.3341 33.5446 42.4998 33.4715 42.6706C33.1707 43.3907 32.8834 44.1108 32.6178 44.8447C32.4877 45.1922 32.3576 45.5397 32.2275 45.8872C32.1655 46.0623 32.1035 46.2375 32.0396 46.4179C31.4724 47.9053 30.7149 48.6745 29.3366 49.4432C29.0552 49.5639 29.0552 49.5639 28.7682 49.6871C28.5781 49.7707 28.3879 49.8544 28.192 49.9405C27.7126 50.1206 27.7126 50.1206 27.3057 50.1206C27.3057 49.986 27.3057 49.8513 27.3057 49.7126C27.692 49.405 27.692 49.405 28.1959 49.075C28.3612 48.9651 28.5264 48.8552 28.6967 48.7419C29.1371 48.4885 29.1371 48.4885 29.544 48.4885C29.5944 48.3791 29.6448 48.2696 29.6967 48.1569C29.951 47.6724 29.951 47.6724 30.3326 47.1496C30.7157 46.5895 30.9208 46.0334 31.1338 45.3899C31.6476 43.8956 32.4451 42.4304 33.6138 41.3477Z" fill="#5A5858"/>
<path d="M37.0731 32.1665C38.0633 33.1594 38.1294 35.2338 38.1414 36.5913C38.1298 37.168 38.0722 37.5261 37.887 38.0832C37.7527 38.0832 37.6184 38.0832 37.48 38.0832C37.4465 38.202 37.4129 38.3209 37.3783 38.4434C36.9032 39.1529 36.217 39.3491 35.4452 39.6643C35.2201 39.761 35.2201 39.761 34.9905 39.8596C33.8836 40.3274 33.8836 40.3274 33.4103 40.3274C33.4103 40.4621 33.4103 40.5967 33.4103 40.7355C33.276 40.7355 33.1417 40.7355 33.0033 40.7355C32.9361 40.8701 32.869 41.0048 32.7998 41.1435C32.7998 40.71 32.7998 40.71 33.0033 40.1234C33.505 39.6533 34.0585 39.277 34.6312 38.8993C34.8201 38.773 35.0089 38.6468 35.2035 38.5167C35.6486 38.2872 35.6486 38.2872 36.2591 38.2872C36.3179 38.1694 36.3766 38.0515 36.4372 37.9302C36.5782 37.6473 36.7261 37.3676 36.8846 37.0942C37.1058 36.5786 37.1017 36.2542 37.0611 35.6971C37.0497 35.5174 37.0383 35.3378 37.0266 35.1527C37.0125 34.9668 36.9985 34.7808 36.984 34.5893C36.9579 34.219 36.9327 33.8487 36.9085 33.4783C36.8963 33.3147 36.8842 33.1511 36.8716 32.9825C36.8696 32.5745 36.8696 32.5745 37.0731 32.1665Z" fill="#979898"/>
<path d="M43.5849 36.043C43.6521 36.043 43.7192 36.043 43.7884 36.043C43.938 39.4766 43.938 39.4766 42.9744 40.9395C42.8653 41.1415 42.7562 41.3435 42.6438 41.5516C42.5514 41.6862 42.4591 41.8209 42.364 41.9596C42.2297 41.9596 42.0954 41.9596 41.957 41.9596C41.9114 42.0764 41.8657 42.1932 41.8187 42.3135C41.4731 42.9081 41.0497 43.2244 40.5071 43.6428C40.322 43.7869 40.1368 43.9311 39.946 44.0796C39.8038 44.1879 39.6616 44.2963 39.5151 44.4079C39.5151 43.6148 39.7747 43.3868 40.2528 42.763C41.6545 40.8643 42.5357 39.1713 43.1819 36.9093C43.3814 36.247 43.3814 36.247 43.5849 36.043Z" fill="#9B9C9C"/>
<path d="M7.15996 4.62354C7.36141 4.69086 7.56287 4.75819 7.77043 4.82756C7.46278 5.55889 7.03671 6.01072 6.46921 6.55856C6.2915 6.73267 6.11378 6.90677 5.93068 7.08616C5.55753 7.4479 5.18394 7.8092 4.80991 8.17003C3.33178 9.62045 2.28348 10.8226 1.90741 12.8865C1.85994 13.1368 1.81246 13.3872 1.76354 13.6452C1.73128 13.8324 1.69901 14.0197 1.66577 14.2126C1.59862 14.2126 1.53147 14.2126 1.46228 14.2126C1.32926 11.5254 2.10752 9.82136 3.88745 7.82255C4.49403 7.15514 5.1103 6.49751 5.73554 5.84767C5.88191 5.6954 6.02828 5.54312 6.17908 5.38623C6.54949 5.03158 6.54949 5.03158 7.15996 4.62354Z" fill="#5A5858"/>
<path d="M29.7471 5.43985C30.1498 5.43436 30.5525 5.43039 30.9553 5.42709C31.1796 5.42473 31.4038 5.42236 31.6349 5.41992C32.1889 5.43985 32.1889 5.43985 32.3924 5.64387C32.441 7.17861 32.441 7.17861 32.1889 7.6841C32.3661 8.11469 32.3661 8.11469 32.6444 8.58786C32.7442 8.76696 32.844 8.94606 32.9468 9.13059C33.0535 9.31811 33.1601 9.50562 33.27 9.69882C33.477 10.068 33.6839 10.4373 33.8908 10.8066C33.9837 10.9707 34.0766 11.1348 34.1724 11.3038C34.4051 11.7244 34.6235 12.1488 34.8343 12.5806C34.2771 12.5759 34.2771 12.5759 33.6134 12.3766C33.2305 11.9052 33.0041 11.3751 32.7612 10.8209C32.6942 10.6781 32.6272 10.5353 32.5582 10.3882C32.3613 9.96529 32.1727 9.53948 31.9854 9.11226C31.9247 8.97898 31.8639 8.84571 31.8013 8.7084C31.54 8.12475 31.375 7.71963 31.375 7.07203C31.5764 7.07203 31.7779 7.07203 31.9854 7.07203C31.9854 6.66806 31.9854 6.2641 31.9854 5.84789C31.2468 5.84789 30.5081 5.84789 29.7471 5.84789C29.7471 5.71324 29.7471 5.57858 29.7471 5.43985Z" fill="#5A5858"/>
<path d="M18.5552 30.5342C18.9003 30.8694 19.2373 31.2093 19.5726 31.5543C19.7145 31.6974 19.8564 31.8404 20.0026 31.9878C20.2242 32.2214 20.2242 32.2214 20.4502 32.4596C20.5921 32.6067 20.734 32.7537 20.8802 32.9051C21.2907 33.5272 21.2867 33.8809 21.2005 34.6146C21.0296 35.0713 21.0296 35.0713 20.8063 35.4945C20.3539 36.4369 20.2489 37.2471 20.1831 38.287C20.1159 38.0177 20.0488 37.7484 19.9796 37.471C19.8453 37.471 19.711 37.471 19.5726 37.471C19.6733 36.865 19.6733 36.865 19.7761 36.2468C19.6418 36.2468 19.5075 36.2468 19.3691 36.2468C19.3691 36.1122 19.3691 35.9775 19.3691 35.8388C19.5034 35.8388 19.6377 35.8388 19.7761 35.8388C19.8055 35.6747 19.8349 35.5106 19.8651 35.3415C19.9796 34.8187 19.9796 34.8187 20.1831 34.6146C20.3108 33.5194 20.0022 32.9926 19.3691 32.1154C18.5552 30.9762 18.5552 30.9762 18.5552 30.5342Z" fill="#A09FA0"/>
<path d="M42.1606 23.5977C42.2949 23.7323 42.4292 23.867 42.5676 24.0057C41.7891 25.0898 40.9659 26.0765 39.935 26.9258C38.7794 27.9087 37.9237 29.1649 37.2769 30.5344C37.0734 29.9224 37.0734 29.9224 37.2562 29.488C38.079 28.1284 39.043 26.9992 40.1257 25.8419C40.5009 25.4151 40.8723 24.9852 41.2433 24.5548C41.5382 24.2231 41.844 23.9084 42.1606 23.5977Z" fill="#5A5858"/>
<path d="M19.3697 36.2471C19.504 36.2471 19.6383 36.2471 19.7767 36.2471C19.7095 36.651 19.6423 37.055 19.5732 37.4712C19.7075 37.4712 19.8418 37.4712 19.9801 37.4712C20.2708 39.1908 20.2708 39.1908 19.7767 40.1235C19.2277 39.5731 19.1801 39.16 19.1392 38.3949C19.1397 38.2205 19.1402 38.0462 19.1407 37.8665C19.1402 37.6916 19.1397 37.5167 19.1392 37.3365C19.1662 36.8591 19.1662 36.8591 19.3697 36.2471Z" fill="#939393"/>
<path d="M26.2883 4.62339C26.4897 4.75804 26.6912 4.8927 26.8987 5.03143C26.7589 5.04379 26.6191 5.05615 26.4751 5.06889C26.2 5.09453 26.2 5.09453 25.9195 5.12069C25.7377 5.13726 25.5559 5.15383 25.3686 5.1709C24.8379 5.22217 24.8379 5.22217 24.2534 5.43948C24.1042 5.8506 24.1042 5.8506 24.0499 6.25557C23.4373 6.44618 23.2631 6.46867 22.6255 6.25557C22.6926 5.98626 22.7598 5.71695 22.829 5.43948C23.3326 5.64146 23.3326 5.64146 23.8464 5.84752C23.9346 5.60136 23.9346 5.60136 24.0245 5.35022C24.4486 4.3816 25.343 4.51266 26.2883 4.62339Z" fill="#5A5858"/>
<path d="M29.951 47.6724C30.0182 47.8743 30.0853 48.0763 30.1545 48.2844C30.356 48.2844 30.5574 48.2844 30.765 48.2844C30.1693 48.9467 29.6195 49.3056 28.8064 49.6616C28.5129 49.7926 28.5129 49.7926 28.2134 49.9262C27.7126 50.1206 27.7126 50.1206 27.3057 50.1206C27.3057 49.986 27.3057 49.8513 27.3057 49.7126C27.692 49.405 27.692 49.405 28.1959 49.075C28.3612 48.9651 28.5264 48.8552 28.6967 48.7419C29.1371 48.4885 29.1371 48.4885 29.544 48.4885C29.6783 48.2191 29.8126 47.9498 29.951 47.6724Z" fill="#9E9D9E"/>
<path d="M43.585 36.043C43.6521 36.043 43.7193 36.043 43.7884 36.043C43.805 36.4976 43.8168 36.9525 43.8266 37.4074C43.8337 37.6606 43.8408 37.9139 43.8481 38.1748C43.7853 38.9372 43.6218 39.3086 43.178 39.9194C43.0437 39.8521 42.9094 39.7847 42.771 39.7154C42.8423 39.5639 42.9137 39.4124 42.9872 39.2563C43.2262 38.7276 43.2262 38.7276 43.0699 38.3127C42.9468 37.7535 43.0715 37.4432 43.267 36.9101C43.3255 36.747 43.384 36.5839 43.4443 36.4159C43.4907 36.2929 43.5371 36.1698 43.585 36.043Z" fill="#929493"/>
<path d="M37.0732 32.1665C37.5066 32.601 37.5771 32.7869 37.7218 33.3651C37.7583 33.5035 37.7948 33.6418 37.8323 33.7843C37.9146 34.4176 37.7614 34.8671 37.4802 35.4309C37.3459 35.4309 37.2116 35.4309 37.0732 35.4309C37.0337 34.9634 36.9958 34.4959 36.9588 34.0282C36.9269 33.6377 36.9269 33.6377 36.8944 33.2392C36.8697 32.5745 36.8697 32.5745 37.0732 32.1665Z" fill="#9C9B9D"/>
<path d="M24.0498 47.6724C24.1169 48.211 24.1841 48.7496 24.2533 49.3045C24.8576 49.4055 24.8576 49.4055 25.4742 49.5086C25.4742 49.6432 25.4742 49.7779 25.4742 49.9166C24.1261 49.9676 24.1261 49.9676 23.4393 49.5086C23.2994 48.769 23.2994 48.769 23.2358 48.0804C23.8463 47.6724 23.8463 47.6724 24.0498 47.6724Z" fill="#A8A7A8"/>
<path d="M41.5501 19.1094C41.8859 19.1094 42.2217 19.1094 42.5676 19.1094C42.4333 19.244 42.299 19.3787 42.1606 19.5174C42.2949 19.6521 42.4292 19.7867 42.5676 19.9255C42.3641 20.1295 42.3641 20.1295 41.8101 20.1494C41.4737 20.1459 41.4737 20.1459 41.1305 20.1422C40.7933 20.1395 40.7933 20.1395 40.4492 20.1367C40.2753 20.1343 40.1014 20.1319 39.9222 20.1295C39.8551 19.9948 39.7879 19.8602 39.7188 19.7214C40.6253 19.6205 40.6253 19.6205 41.5501 19.5174C41.5501 19.3828 41.5501 19.2481 41.5501 19.1094Z" fill="#5A5858"/>
<path d="M20.9972 4.62354C21.5344 4.89285 22.0716 5.16216 22.6251 5.43963C22.6251 5.64161 22.6251 5.84359 22.6251 6.0517C21.7852 5.92786 21.1331 5.63587 20.3867 5.2356C20.5882 5.03362 20.7896 4.83164 20.9972 4.62354Z" fill="#5A5858"/>
<path d="M10.8228 22.1696C10.6885 22.5736 10.5542 22.9776 10.4159 23.3938C10.29 23.3601 10.1641 23.3264 10.0343 23.2918C9.60993 23.1742 9.60993 23.1742 9.19494 23.1897C8.99348 23.1224 8.79203 23.0551 8.58447 22.9857C8.58447 22.8511 8.58447 22.7164 8.58447 22.5777C9.36245 22.2874 9.99115 22.1206 10.8228 22.1696Z" fill="#A0A0A1"/>
<path d="M9.19517 22.9855C9.39662 22.9855 9.59807 22.9855 9.80563 22.9855C9.80563 23.1202 9.80563 23.2548 9.80563 23.3936C8.92507 23.8484 8.32342 23.7862 7.36377 23.5976C7.43092 23.3956 7.49807 23.1936 7.56726 22.9855C8.24727 22.7582 8.51346 22.8317 9.19517 22.9855Z" fill="#8F9090"/>
<path d="M40.5326 42.3677C40.6669 42.5023 40.8012 42.637 40.9396 42.7757C41.141 42.7757 41.3425 42.7757 41.55 42.7757C40.8785 43.3143 40.207 43.853 39.5151 44.4079C39.5151 43.7151 39.6213 43.5783 40.0239 43.0435C40.1183 42.9165 40.2127 42.7894 40.31 42.6586C40.3835 42.5626 40.4569 42.4666 40.5326 42.3677Z" fill="#9D9D9D"/>
<path d="M42.16 23.5977C42.2943 23.7323 42.4286 23.867 42.567 24.0057C41.5786 25.3742 41.5786 25.3742 40.7992 25.5741C40.5662 25.6057 40.5662 25.6057 40.3286 25.6379C40.5191 25.4123 40.7099 25.1871 40.9009 24.9621C41.0072 24.8366 41.1134 24.7112 41.2228 24.5819C41.5234 24.2395 41.8345 23.9162 42.16 23.5977Z" fill="#5A5858"/>
<path d="M13.2651 22.9854C13.5623 23.043 13.8589 23.1029 14.1554 23.1639C14.3207 23.197 14.4859 23.2301 14.6562 23.2643C15.0965 23.3934 15.0965 23.3934 15.5035 23.8014C15.3692 23.9361 15.2349 24.0708 15.0965 24.2095C14.8279 24.2095 14.5593 24.2095 14.2826 24.2095C14.2154 24.0748 14.1483 23.9402 14.0791 23.8014C13.6687 23.5702 13.6687 23.5702 13.2651 23.3934C13.2651 23.2587 13.2651 23.1241 13.2651 22.9854Z" fill="#8F8F8F"/>
<path d="M31.986 43.7959C32.2546 43.8632 32.5232 43.9306 32.7999 43.9999C32.6656 44.3366 32.5313 44.6732 32.3929 45.02C32.2586 45.02 32.1243 45.02 31.986 45.02C31.8517 45.1547 31.7173 45.2893 31.579 45.4281C31.4391 45.071 31.4391 45.071 31.3755 44.612C31.668 44.1529 31.668 44.1529 31.986 43.7959Z" fill="#929292"/>
<path d="M22.0149 44.8159C22.4732 45.3644 22.8049 45.7639 23.0323 46.4481C22.898 46.4481 22.7637 46.4481 22.6254 46.4481C22.4911 46.5828 22.3567 46.7174 22.2184 46.8561C22.0169 46.5195 21.8155 46.1829 21.6079 45.836C21.7422 45.836 21.8765 45.836 22.0149 45.836C21.9582 45.6404 21.9582 45.6404 21.9004 45.4407C21.8564 45.2324 21.8564 45.2324 21.8114 45.0199C21.8785 44.9526 21.9457 44.8853 22.0149 44.8159Z" fill="#9C9C9B"/>
<path d="M25.4742 4.57252C25.6127 4.57147 25.7512 4.57042 25.8939 4.56934C26.2882 4.62353 26.2882 4.62353 26.8986 5.03158C26.6854 5.05012 26.6854 5.05012 26.4678 5.06903C26.2826 5.08613 26.0974 5.10322 25.9066 5.12084C25.7225 5.1374 25.5384 5.15397 25.3486 5.17104C24.8615 5.20905 24.8615 5.20905 24.4568 5.43962C24.3225 5.30497 24.1882 5.17031 24.0498 5.03158C24.6597 4.62388 24.7892 4.56732 25.4742 4.57252Z" fill="#5A5858"/>
<path d="M19.1665 1.56299C19.5694 1.76497 19.5694 1.76497 19.9805 1.97103C19.9805 2.30767 19.9805 2.64431 19.9805 2.99115C19.7119 2.99115 19.4432 2.99115 19.1665 2.99115C19.1665 2.51986 19.1665 2.04856 19.1665 1.56299Z" fill="#5A5858"/>
<path d="M4.51489 23.3936C4.58204 23.5282 4.64919 23.6629 4.71838 23.8016C5.42346 23.7006 5.42346 23.7006 6.1428 23.5976C6.1428 23.6649 6.1428 23.7322 6.1428 23.8016C6.74716 23.9026 6.74716 23.9026 7.36373 24.0056C7.36373 24.073 7.36373 24.1403 7.36373 24.2096C6.18796 24.2578 5.2244 24.1827 4.10791 23.8016C4.24221 23.6669 4.37652 23.5323 4.51489 23.3936Z" fill="#A5A5A5"/>
<path d="M43.3812 18.7012C43.9917 18.7649 43.9917 18.7649 44.6022 18.9052C44.6693 19.0398 44.7365 19.1745 44.8056 19.3132C44.3356 19.4479 43.8655 19.5826 43.3812 19.7213C43.2668 19.326 43.2668 19.326 43.1777 18.9052C43.2449 18.8379 43.312 18.7705 43.3812 18.7012Z" fill="#5A5858"/>
<path d="M21.4043 42.98C21.8113 43.592 21.8113 43.592 21.8113 44.0001C21.677 44.0001 21.5427 44.0001 21.4043 44.0001C21.3371 44.1347 21.27 44.2694 21.2008 44.4081C21.0665 44.4081 20.9322 44.4081 20.7938 44.4081C20.7267 44.0715 20.6595 43.7349 20.5903 43.388C20.7918 43.388 20.9932 43.388 21.2008 43.388C21.2679 43.2534 21.3351 43.1187 21.4043 42.98Z" fill="#A1A3A4"/>
<path d="M43.7881 18.4971C44.3253 18.4971 44.8625 18.4971 45.416 18.4971C45.4831 18.8337 45.5503 19.1703 45.6195 19.5172C44.9156 19.2623 44.3687 18.9714 43.7881 18.4971Z" fill="#5A5858"/>
<path d="M37.073 32.1665C37.48 32.5745 37.48 32.5745 37.5054 33.2121C37.497 33.4057 37.4886 33.5993 37.48 33.7987C37.2785 33.7987 37.0771 33.7987 36.8695 33.7987C36.8441 32.6256 36.8441 32.6256 37.073 32.1665Z" fill="#A5A5A9"/>
<path d="M18.5552 30.5342C19.1518 31.1162 19.7035 31.6871 20.1831 32.3704C19.827 32.3449 19.827 32.3449 19.3691 32.1664C18.5552 31.1009 18.5552 31.1009 18.5552 30.5342Z" fill="#A3A3A3"/>
<path d="M12.8583 22.9854C12.9926 22.9854 13.1269 22.9854 13.2653 22.9854C13.3996 23.1873 13.5339 23.3893 13.6722 23.5974C14.198 23.6485 14.198 23.6485 14.6897 23.5974C14.4882 23.6984 14.4882 23.6984 14.2827 23.8014C14.2827 23.9361 14.2827 24.0708 14.2827 24.2095C13.5959 23.9676 13.1335 23.7452 12.6548 23.1894C12.7219 23.122 12.7891 23.0547 12.8583 22.9854Z" fill="#A1A1A1"/>
<path d="M10.8231 2.37891C11.0246 2.44623 11.226 2.51356 11.4336 2.58293C11.4336 2.71758 11.4336 2.85224 11.4336 2.99097C11.7022 3.0583 11.9708 3.12563 12.2475 3.195C11.7103 3.195 11.1731 3.195 10.6196 3.195C10.6868 2.92569 10.7539 2.65638 10.8231 2.37891Z" fill="#5A5858"/>
<path d="M43.5849 36.043C43.652 36.043 43.7192 36.043 43.7884 36.043C43.8138 36.7315 43.8138 36.7315 43.7884 37.4711C43.6541 37.6058 43.5198 37.7404 43.3814 37.8792C43.1712 37.3103 43.1687 37.0901 43.3687 36.502C43.44 36.3505 43.5114 36.199 43.5849 36.043Z" fill="#989A99"/>
<path d="M20.5906 34.207C20.7249 34.2744 20.8592 34.3417 20.9975 34.4111C20.9304 34.7477 20.8632 35.0843 20.7941 35.4312C20.5926 35.3638 20.3912 35.2965 20.1836 35.2271C20.3616 34.4366 20.3616 34.4366 20.5906 34.207Z" fill="#929296"/>
<path d="M37.2763 30.3306C37.3435 30.5325 37.4107 30.7345 37.4798 30.9426C37.1873 31.4909 37.1873 31.4909 36.8694 31.9627C36.6793 31.3486 36.6568 31.1739 36.8694 30.5346C37.0037 30.4673 37.138 30.3999 37.2763 30.3306Z" fill="#E3D8E1"/>
<path d="M33.0034 10.54C33.272 10.6074 33.5406 10.6747 33.8174 10.7441C33.7502 11.0807 33.6831 11.4173 33.6139 11.7642C33.3087 11.4964 33.3087 11.4964 33.0034 11.1521C33.0034 10.9501 33.0034 10.7481 33.0034 10.54Z" fill="#5A5858"/>
<path d="M2.4799 10.1323C2.6142 10.1997 2.74851 10.267 2.88688 10.3363C2.62152 10.7483 2.35003 11.1564 2.07292 11.5605C2.00577 11.5605 1.93862 11.5605 1.86944 11.5605C1.83128 11.0759 1.83128 11.0759 1.86944 10.5404C2.07089 10.4057 2.27234 10.2711 2.4799 10.1323Z" fill="#5A5858"/>
<path d="M19.9799 4.21533C20.4835 4.41731 20.4835 4.41731 20.9973 4.62338C20.9301 4.75803 20.863 4.89269 20.7938 5.03142C20.4581 4.9641 20.1223 4.89677 19.7764 4.8274C19.8435 4.62542 19.9107 4.42344 19.9799 4.21533Z" fill="#5A5858"/>
<path d="M71.8315 55.9887C74.5432 55.9472 77.2546 55.9135 79.9666 55.8936C81.2258 55.884 82.4848 55.871 83.744 55.8502C84.9592 55.8302 86.1741 55.8193 87.3895 55.8145C87.8531 55.8111 88.3167 55.8045 88.7802 55.7946C89.4298 55.7812 90.0785 55.7794 90.7283 55.7803C90.9198 55.7737 91.1114 55.7671 91.3088 55.7603C91.8603 55.7681 92.2736 55.7949 92.7909 55.9887C93.3217 56.5425 93.665 57.1442 94.0118 57.8249C94.1889 58.1097 94.1889 58.1097 94.3695 58.4003C94.6581 58.8881 94.9462 59.3761 95.2327 59.8651C95.3177 60.0077 95.4027 60.1502 95.4903 60.2971C96.0467 61.2439 96.0467 61.2439 96.0467 61.7014C96.5729 61.2209 96.9097 60.7095 97.2676 60.0947C97.3683 59.9227 97.4691 59.7507 97.5728 59.5735C97.6736 59.4004 97.7743 59.2274 97.8781 59.0491C98.0319 58.7942 98.0319 58.7942 98.1889 58.5342C98.5689 57.8934 98.9162 57.2367 99.2651 56.5785C99.506 56.1927 99.506 56.1927 99.913 55.9887C100.297 55.9714 100.681 55.9668 101.066 55.9688C101.294 55.9694 101.522 55.9701 101.757 55.9708C101.996 55.9725 102.236 55.9742 102.482 55.976C102.723 55.9769 102.964 55.9778 103.212 55.9788C103.808 55.9812 104.404 55.9845 105 55.9887C104.745 56.8257 104.436 57.5485 103.995 58.3031C103.818 58.6069 103.818 58.6069 103.637 58.9168C103.512 59.1287 103.387 59.3407 103.258 59.5591C103.13 59.7774 103.002 59.9957 102.87 60.2206C102.045 61.622 101.196 63.0013 100.293 64.3537C100.168 64.5556 100.042 64.7576 99.913 64.9657C99.839 65.0725 99.765 65.1793 99.6888 65.2893C98.8399 66.6815 98.9617 68.2846 98.9464 69.8623C98.9406 70.1595 98.9346 70.4568 98.9281 70.7541C98.9125 71.477 98.9042 72.1995 98.8955 72.9226C97.0153 72.9226 95.135 72.9226 93.1978 72.9226C93.2068 72.4892 93.2157 72.0558 93.2249 71.6092C93.271 67.3042 93.271 67.3042 91.2996 63.595C90.6242 62.6706 90.0865 61.6531 89.5266 60.6556C89.195 60.0656 88.8591 59.478 88.5232 58.8905C88.4093 58.6901 88.2954 58.4897 88.1781 58.2832C87.9453 57.8463 87.9453 57.8463 87.7036 57.6209C87.6365 58.5635 87.5693 59.5061 87.5002 60.4772C85.8885 60.4772 84.2769 60.4772 82.6164 60.4772C82.6164 64.5842 82.6164 68.6912 82.6164 72.9226C80.669 72.9226 78.7217 72.9226 76.7153 72.9226C76.7153 68.8156 76.7153 64.7087 76.7153 60.4772C75.1036 60.4772 73.492 60.4772 71.8315 60.4772C71.8315 58.996 71.8315 57.5148 71.8315 55.9887Z" fill="#5A5858"/>
<path d="M0 55.9882C1.77111 55.9756 3.54223 55.963 5.36701 55.95C5.92215 55.9444 6.4773 55.9388 7.04927 55.9331C7.49483 55.9313 7.94039 55.9297 8.38595 55.9284C8.6128 55.9253 8.83965 55.9222 9.07337 55.9189C11.1564 55.9183 12.9866 56.3061 14.6512 57.6204C15.499 58.5576 15.7025 59.0801 15.7195 60.3364C15.7247 60.5671 15.73 60.7977 15.7354 61.0354C15.6075 62.3102 14.718 63.266 13.8372 64.1491C13.96 64.2209 14.0827 64.2927 14.2092 64.3667C15.2309 64.9995 16.1517 65.5836 16.4826 66.8014C16.6788 68.2807 16.6701 69.5441 15.7513 70.7647C14.5159 72.1513 12.8097 72.7587 10.9884 72.9221C10.1407 72.9491 9.29363 72.9459 8.44557 72.942C8.23099 72.9418 8.01641 72.9416 7.79533 72.9414C6.99861 72.9403 6.20189 72.9375 5.40516 72.9349C3.62146 72.9307 1.83776 72.9264 0 72.9221C0 67.3339 0 61.7457 0 55.9882Z" fill="#5A5858"/>
<path d="M54.1281 55.9888C56.0083 55.9888 57.8886 55.9888 59.8258 55.9888C59.831 56.7699 59.8363 57.551 59.8417 58.3558C59.8495 59.1134 59.8587 59.871 59.868 60.6286C59.8737 61.1546 59.8781 61.6806 59.8809 62.2066C59.8853 62.9633 59.8948 63.7198 59.9053 64.4764C59.9055 64.7111 59.9058 64.9458 59.906 65.1876C59.929 66.4504 59.961 67.2887 60.8432 68.2301C61.8188 68.5562 62.7056 68.5849 63.6539 68.2046C64.3479 67.6082 64.6627 66.9982 64.7702 66.0782C64.7997 65.4375 64.8099 64.799 64.8136 64.1577C64.8173 63.9239 64.8209 63.6902 64.8247 63.4493C64.8357 62.7052 64.8426 61.9611 64.8494 61.2169C64.8562 60.7113 64.8632 60.2058 64.8705 59.7002C64.8882 58.4631 64.9005 57.226 64.913 55.9888C66.7261 55.9888 68.5392 55.9888 70.4072 55.9888C70.4307 57.5675 70.4509 59.1457 70.4631 60.7245C70.4682 61.2605 70.4751 61.7966 70.4839 62.3326C70.4964 63.107 70.5021 63.8812 70.5065 64.6558C70.5118 64.892 70.517 65.1282 70.5225 65.3716C70.5231 67.3165 70.0674 69.0471 68.9828 70.6784C68.8485 70.6784 68.7142 70.6784 68.5758 70.6784C68.4751 70.9814 68.4751 70.9814 68.3723 71.2905C66.5432 72.9969 63.9343 73.4791 61.5173 73.3953C59.5359 73.2055 57.4328 72.5459 55.9833 71.1167C54.8277 69.6553 54.1007 67.9549 54.105 66.0873C54.105 65.8627 54.105 65.6381 54.105 65.4067C54.1061 65.1655 54.1071 64.9242 54.1082 64.6757C54.1085 64.4278 54.1088 64.1799 54.1091 63.9244C54.1102 63.1324 54.1128 62.3404 54.1154 61.5484C54.1164 61.0115 54.1173 60.4746 54.1182 59.9377C54.1202 58.6214 54.1242 57.3051 54.1281 55.9888Z" fill="#5A5858"/>
<path d="M40.2904 55.9888C42.1707 55.9888 44.0509 55.9888 45.9881 55.9888C46.6367 57.4807 46.6367 57.4807 46.834 57.9352C47.1833 58.737 47.5394 59.5353 47.9014 60.3314C48.4511 61.5408 48.9894 62.7549 49.5237 63.9712C49.6213 64.1933 49.7189 64.4154 49.8195 64.6443C50.4412 66.0645 51.0451 67.4904 51.6253 68.9281C52.0305 69.9289 52.4705 70.9087 52.9377 71.8818C53.1102 72.3106 53.1102 72.3106 53.1102 72.9227C51.23 72.9227 49.3497 72.9227 47.4125 72.9227C46.3951 70.4744 46.3951 70.4744 46.3951 69.8623C44.2462 69.8623 42.0974 69.8623 39.8835 69.8623C39.682 70.4683 39.4805 71.0742 39.273 71.6985C39.1387 72.1025 39.0044 72.5065 38.866 72.9227C36.9186 72.9227 34.9712 72.9227 32.9648 72.9227C33.264 72.0229 33.5789 71.1851 33.9545 70.319C34.0102 70.1902 34.0659 70.0614 34.1233 69.9287C34.2409 69.6572 34.3588 69.3857 34.4768 69.1144C34.6542 68.7069 34.8308 68.299 35.0073 67.891C35.5052 66.742 36.0065 65.5948 36.5267 64.4557C37.23 62.9142 37.8919 61.3543 38.5596 59.797C38.7319 59.3954 38.9047 58.9939 39.0774 58.5925C39.1786 58.3567 39.2798 58.121 39.384 57.8781C39.668 57.2399 39.9787 56.6138 40.2904 55.9888Z" fill="#5A5858"/>
<path d="M43.233 59.9038C43.8089 60.5939 44.1494 61.3506 44.4921 62.1736C44.5753 62.3673 44.5753 62.3673 44.6602 62.5649C45.0644 63.5216 45.0644 63.5216 45.0644 63.9843C43.99 63.9843 42.9156 63.9843 41.8086 63.9843C42.2073 62.5852 42.6721 61.2456 43.233 59.9038Z" fill="#FBF5FC"/>
<path d="M18.5171 55.9888C23.0834 55.9888 27.6497 55.9888 32.3543 55.9888C32.3543 57.4026 32.3543 58.8165 32.3543 60.2733C29.6683 60.2733 26.9822 60.2733 24.2148 60.2733C24.2148 60.9465 24.2148 61.6198 24.2148 62.3135C26.5651 62.3135 28.9154 62.3135 31.3369 62.3135C31.3369 63.66 31.3369 65.0066 31.3369 66.3939C28.9866 66.3939 26.6363 66.3939 24.2148 66.3939C24.2148 67.1345 24.2148 67.8751 24.2148 68.6382C26.968 68.6382 29.7212 68.6382 32.5578 68.6382C32.5578 70.0521 32.5578 71.4659 32.5578 72.9227C27.9244 72.9227 23.2909 72.9227 18.5171 72.9227C18.5171 67.3345 18.5171 61.7463 18.5171 55.9888Z" fill="#5A5858"/>
<path d="M54.1279 33.75C58.6271 33.75 63.1262 33.75 67.7617 33.75C67.7617 35.1639 67.7617 36.5778 67.7617 38.0345C65.1428 38.0345 62.5239 38.0345 59.8256 38.0345C59.8256 38.7078 59.8256 39.381 59.8256 40.0747C62.1087 40.0747 64.3919 40.0747 66.7442 40.0747C66.7442 41.4213 66.7442 42.7678 66.7442 44.1552C64.4611 44.1552 62.1779 44.1552 59.8256 44.1552C59.8256 44.8958 59.8256 45.6364 59.8256 46.3994C62.5788 46.3994 65.332 46.3994 68.1686 46.3994C68.1686 47.8133 68.1686 49.2272 68.1686 50.6839C63.5352 50.6839 58.9018 50.6839 54.1279 50.6839C54.1279 45.0957 54.1279 39.5075 54.1279 33.75Z" fill="#5A5858"/>
<path d="M85.2612 34.9743C85.8469 35.4089 86.4078 35.8518 86.8891 36.4025C86.8891 36.5372 86.8891 36.6718 86.8891 36.8105C86.5475 37.1158 86.1933 37.4069 85.8335 37.6904C85.2134 38.1806 84.6529 38.6444 84.119 39.2293C83.6333 39.6669 83.6333 39.6669 83.22 39.6677C82.7498 39.4273 82.335 39.1429 81.9036 38.838C80.7189 38.1081 79.7031 38.0444 78.3426 38.2387C77.4112 38.4751 76.7054 38.9078 76.1042 39.6669C75.4552 40.9942 75.4567 42.6486 75.8371 44.0637C76.2623 45.0069 76.8097 45.4997 77.7321 45.9916C78.4689 46.2378 79.1413 46.2176 79.9069 46.2084C80.3979 46.2041 80.889 46.1999 81.3949 46.1956C81.3949 44.7144 81.3949 43.2332 81.3949 41.7071C83.0737 41.7071 84.7525 41.7071 86.4821 41.7071C86.5102 42.7095 86.5345 43.7106 86.5492 44.7131C86.5553 45.054 86.5637 45.3947 86.5742 45.7355C86.5891 46.2258 86.596 46.7157 86.6014 47.2062C86.6108 47.4341 86.6108 47.4341 86.6205 47.6667C86.6207 48.0997 86.6207 48.0997 86.4821 48.8479C84.2718 50.7105 80.9339 51.261 78.128 51.1655C76.4341 51.0108 74.9588 50.4427 73.4589 49.664C73.4589 49.5293 73.4589 49.3947 73.4589 49.2559C73.3125 49.2144 73.1661 49.1728 73.0153 49.13C72.2774 48.7672 71.8759 48.2465 71.3985 47.5983C71.309 47.4774 71.2194 47.3565 71.1271 47.2319C69.6632 45.2074 69.3981 43.0311 69.6745 40.5698C70.2242 37.8139 71.6499 36.0888 73.9167 34.5153C77.5611 32.6466 81.7855 32.8691 85.2612 34.9743Z" fill="#5A5858"/>
<path d="M87.0928 33.7501C89.0402 33.7501 90.9875 33.7501 92.9939 33.7501C93.3968 34.4907 93.7998 35.2313 94.2149 35.9943C94.6873 36.7099 94.6873 36.7099 95.1663 37.4209C96.0463 38.7586 96.0463 38.7586 96.0463 39.4627C96.1806 39.4627 96.3149 39.4627 96.4532 39.4627C96.5047 39.3205 96.5561 39.1782 96.609 39.0316C96.8917 38.3687 97.2407 37.7906 97.6233 37.1802C97.7566 36.9669 97.8898 36.7536 98.0271 36.5339C98.1013 36.4205 98.1755 36.3072 98.252 36.1904C98.5071 35.7776 98.5071 35.7776 98.7187 35.2532C98.9994 34.6554 99.2427 34.219 99.7091 33.7501C100.627 33.4982 101.488 33.556 102.431 33.6226C102.678 33.6318 102.924 33.641 103.179 33.6505C103.787 33.6745 104.393 33.7079 105 33.7501C104.843 34.6668 104.537 35.259 104.033 36.0454C103.553 36.8037 103.082 37.5605 102.66 38.3534C102.263 39.0852 101.816 39.7685 101.35 40.4573C100.678 41.4508 100.088 42.4643 99.5318 43.5265C99.3021 43.9512 99.3021 43.9512 99.0986 44.1553C99.0661 44.6395 99.0458 45.1185 99.0342 45.6033C99.03 45.748 99.0258 45.8926 99.0214 46.0416C99.0081 46.5052 98.9961 46.9688 98.9841 47.4324C98.9753 47.746 98.9665 48.0596 98.9575 48.3732C98.9355 49.1434 98.9154 49.9137 98.8951 50.684C97.0149 50.684 95.1346 50.684 93.1974 50.684C93.1969 50.234 93.1964 49.784 93.1958 49.3204C93.1912 48.8787 93.1845 48.4371 93.1776 47.9955C93.1739 47.6914 93.1723 47.3873 93.173 47.0832C93.1755 45.178 93.0539 43.8216 91.773 42.3191C90.9591 41.0373 90.9591 41.0373 90.9591 40.4828C90.8248 40.4828 90.6905 40.4828 90.5521 40.4828C90.4781 40.3298 90.4041 40.1767 90.3279 40.019C89.5674 38.4666 88.7466 36.9774 87.8074 35.5265C87.7142 35.3821 87.6211 35.2378 87.5252 35.089C87.4418 34.963 87.3584 34.837 87.2724 34.7072C87.0928 34.3622 87.0928 34.3622 87.0928 33.7501Z" fill="#5A5858"/>
<path d="M5.49414 66.1894C6.18944 66.1784 6.88456 66.1703 7.5799 66.1639C7.77689 66.1605 7.97389 66.157 8.17685 66.1535C8.36703 66.1522 8.5572 66.1509 8.75314 66.1495C8.9279 66.1474 9.10266 66.1453 9.28272 66.1431C9.81162 66.1936 10.1346 66.3128 10.5814 66.5974C10.8692 67.1746 10.8498 67.5918 10.7848 68.2296C10.3507 68.6594 10.0751 68.8273 9.46753 68.9112C9.28424 68.908 9.10096 68.9048 8.91211 68.9015C8.61308 68.8985 8.61308 68.8985 8.30801 68.8955C7.99796 68.8878 7.99796 68.8878 7.68164 68.8799C7.47179 68.8772 7.26195 68.8744 7.04574 68.8716C6.5285 68.8644 6.0113 68.8534 5.49414 68.8417C5.49414 67.9664 5.49414 67.0912 5.49414 66.1894Z" fill="#FCF9FC"/>
<path d="M5.45312 59.9501C6.14842 59.9391 6.84354 59.931 7.53888 59.9246C7.73588 59.9212 7.93287 59.9178 8.13584 59.9143C8.32601 59.913 8.51618 59.9116 8.71212 59.9103C8.88688 59.9081 9.06165 59.906 9.24171 59.9038C9.7706 59.9544 10.0936 60.0735 10.5403 60.3582C10.8282 60.9353 10.8087 61.3525 10.7438 61.9904C10.3097 62.4202 10.0341 62.588 9.42652 62.6719C9.24323 62.6687 9.05994 62.6655 8.8711 62.6622C8.57206 62.6592 8.57206 62.6592 8.26699 62.6562C7.95694 62.6485 7.95694 62.6485 7.64063 62.6407C7.43078 62.6379 7.22093 62.6352 7.00472 62.6323C6.48748 62.6251 5.97029 62.6141 5.45312 62.6024C5.45312 61.7272 5.45312 60.8519 5.45312 59.9501Z" fill="#FCF9FC"/>
</svg>
