<svg width="73" height="80" viewBox="0 0 73 80" fill="none" xmlns="http://www.w3.org/2000/svg">
<path d="M34.5391 0.500027C29.7951 0.812431 24.7735 2.76785 21.0594 5.7299C20.0528 6.53984 18.1783 8.39112 17.3337 9.40932C15.0774 12.1631 13.2146 15.9467 12.4394 19.3947C11.4096 23.9188 11.6294 28.5701 13.0757 32.9322C13.5501 34.3669 14.8576 37.0629 15.6907 38.3356C17.299 40.8117 19.2891 42.9523 21.6148 44.6994C32.7456 53.088 48.5047 50.3458 56.3032 38.6596C57.8189 36.3686 59.1958 33.1752 59.8206 30.4792C60.6074 27.0312 60.5843 23.0278 59.7628 19.3947C58.9876 15.9467 57.1247 12.1631 54.8685 9.40932C54.0238 8.39112 52.1494 6.53984 51.1428 5.7299C46.5724 2.07361 40.3475 0.118198 34.5391 0.500027ZM39.9541 5.26708C40.0119 5.32493 39.9078 5.47535 39.7226 5.62576C39.4102 5.86874 39.4102 5.88031 39.6301 6.0423C39.8384 6.20429 39.8384 6.22743 39.6648 6.52826C39.3755 7.01423 38.1606 7.58118 37.235 7.67375C36.5292 7.7316 36.3903 7.78945 35.7887 8.27541C34.9325 8.96965 33.5208 10.7746 32.7456 12.1747C31.1489 15.0673 30.3737 18.2029 31.01 19.2443C31.1373 19.4525 31.2877 19.6261 31.3572 19.6261C31.5191 19.6261 31.8778 19.2443 32.9886 17.8789C33.4861 17.2657 34.1341 16.5483 34.4349 16.2822C35.3143 15.507 36.3441 15.3797 36.911 15.9814C37.1424 16.2359 37.1656 16.3401 37.1193 17.0459C37.073 17.6591 36.9342 18.1335 36.506 19.1054C34.8167 23.0163 34.8052 23.0625 35.5457 23.4791C35.9275 23.7105 36.0085 23.7105 36.4713 23.5832C37.397 23.3055 37.6052 23.294 37.8367 23.5022C38.1606 23.7915 38.1375 24.8097 37.7672 27.6098C37.4433 29.9354 37.3507 32.4 37.5127 33.8578L37.6052 34.6099L37.3275 34.0777C36.5408 32.6082 36.425 30.3867 36.9457 27.2279C37.3044 25.1221 37.3275 24.6824 37.073 24.4857C36.9226 24.3584 36.8069 24.37 36.3788 24.5783C35.6614 24.937 35.268 24.9023 34.8399 24.4741C34.0068 23.6526 34.0878 22.565 35.1754 19.8691C35.9622 17.9137 36.0201 17.5434 35.5804 17.5434C35.1292 17.5434 34.8399 17.7864 33.382 19.3947C31.9241 21.0261 31.1836 21.5815 30.7902 21.3617C30.1423 21.0261 29.5059 18.8624 29.5059 17.0227C29.5059 14.0028 30.9753 10.9598 33.8101 8.14814C35.2796 6.67868 36.8994 5.56791 38.1838 5.15137C38.5077 5.04724 39.8152 5.12823 39.9541 5.26708ZM41.7591 6.73653C42.0136 6.96795 42.2334 7.19936 42.2334 7.28035C42.2334 7.34977 42.0946 7.28035 41.921 7.11836C41.6665 6.88695 41.6318 6.87538 41.7012 7.06051C41.7475 7.21093 41.6665 7.17621 41.3772 6.92166C41.1574 6.73653 40.8218 6.48198 40.6251 6.36628C40.4284 6.25057 40.2665 6.11172 40.2665 6.06544C40.2665 5.89189 41.3078 6.35471 41.7591 6.73653ZM39.5722 11.3879C45.7393 12.9846 49.7196 17.4855 50.1708 23.3749L50.2518 24.37H49.2105C48.6435 24.37 47.4633 24.4047 46.5955 24.451L45.0104 24.5204V24.208C45.0104 24.0345 44.9294 23.5022 44.8252 23.0047C44.5013 21.408 43.6219 19.9848 42.2797 18.8856C41.5624 18.2955 39.8384 17.312 39.5259 17.312C39.364 17.312 39.2945 18.9203 39.1557 26.823L39.0747 30.8495H38.4499H37.8367L37.9061 30.1784C38.0102 29.1602 38.1606 27.9106 38.3573 26.5106C38.5656 24.9948 38.5772 23.8725 38.4036 23.5254C38.0796 22.9006 37.3044 22.6807 36.6796 23.0394C36.2746 23.2708 35.8234 23.2477 35.6035 23.0047C35.3721 22.7617 35.43 22.5881 36.6565 19.8575C37.4548 18.0409 37.6052 17.5781 37.6052 16.8145C37.6052 15.75 37.0151 15.183 35.9275 15.1946C35.1176 15.1946 34.4581 15.5648 33.5208 16.5368C32.977 17.1037 32.5142 17.4624 31.982 17.717L31.2183 18.0872L31.2877 17.3814C31.3803 16.4326 31.82 15.102 32.5258 13.6326C33.3936 11.7929 33.8564 11.0871 34.2267 11.0176C34.4002 10.9945 35.3721 10.9829 36.3903 11.0061C37.9986 11.0408 38.4152 11.0871 39.5722 11.3879ZM29.853 13.1119C29.1009 14.9747 28.8579 17.0806 29.2166 18.7583C29.3092 19.198 29.3902 19.5798 29.3902 19.5798C29.3902 19.5914 29.1819 19.8459 28.9274 20.1583C28.6844 20.4592 28.3141 21.003 28.1174 21.3732C27.7356 22.1022 27.3075 23.5948 27.3075 24.2196V24.6014L24.681 24.5783L22.0429 24.5436L22.0776 23.5601C22.2049 19.6955 24.3107 15.8888 27.5505 13.6441C28.4182 13.054 30.1075 12.1053 30.1885 12.1747C30.2001 12.1862 30.0613 12.6144 29.853 13.1119ZM34.782 19.7071C33.9027 21.8939 33.706 22.7154 33.8795 23.5369C34.0878 24.5436 34.8167 25.2957 35.5804 25.2957C35.7424 25.2957 36.0548 25.2147 36.2862 25.1221C36.506 25.0295 36.7143 24.9717 36.7606 24.9832C36.8647 25.018 36.83 25.4808 36.6217 26.5684C36.4482 27.5288 36.2283 29.4379 36.1821 30.3288L36.1589 30.9074L34.5738 30.9421L32.977 30.9768V25.7469V20.517L33.7523 19.6377C34.5391 18.7467 35.3143 17.9947 35.3953 18.0641C35.4068 18.0872 35.1407 18.8277 34.782 19.7071ZM27.2381 29.3685C27.2612 29.4495 27.3538 29.9586 27.4579 30.5024C27.7819 32.2148 28.6381 33.5801 30.258 34.9917C30.9406 35.5934 32.0282 36.2067 32.6646 36.3571L32.977 36.4265V34.6215V32.8049L34.6663 32.8396L36.3556 32.8743L36.6102 33.5801C36.992 34.6215 37.3391 35.1306 37.6747 35.1306C38.0334 35.1306 38.1028 34.8298 37.9639 33.8C37.9176 33.3487 37.8945 32.9553 37.9176 32.8975C37.9871 32.7818 39.04 32.8743 39.0747 33.0016C39.0863 33.0595 39.1557 33.8578 39.2251 34.7719C39.2945 35.6976 39.3755 36.4728 39.3987 36.4959C39.4912 36.5885 40.44 36.1488 41.3078 35.6166C43.4136 34.3091 44.6864 32.3537 44.9641 30.0049L45.0335 29.3453H46.0517C46.6071 29.3453 47.7757 29.38 48.6551 29.4263L50.2518 29.4958L50.1708 30.4792C50.0088 32.5967 49.384 34.5868 48.3543 36.2876C47.5559 37.6067 45.4501 39.6894 44.05 40.5572C42.7078 41.3787 41.1805 42.0266 39.5722 42.4432C37.6515 42.9407 35.3143 43.0217 33.4283 42.6514C30.2811 42.0266 27.7472 40.6729 25.6529 38.486C23.9057 36.681 22.9107 34.8298 22.39 32.4694C22.1007 31.1619 21.9156 29.542 22.0429 29.3453C22.1586 29.1602 27.1918 29.1833 27.2381 29.3685Z" fill="#333232"/>
<path d="M37.9637 5.44043C37.7438 5.70655 37.9174 6.08838 38.2529 6.08838C38.5769 6.08838 38.7389 5.79912 38.5653 5.52142C38.4033 5.26687 38.1372 5.23216 37.9637 5.44043Z" fill="#333232"/>
<path d="M44.0269 36.1836C43.7145 36.3918 43.4253 36.5654 43.4137 36.5885C43.3096 36.6695 43.541 37.0976 43.703 37.0976C43.8071 37.0976 43.8534 37.0282 43.8187 36.9356C43.7608 36.7852 44.2699 36.3224 44.3741 36.4265C44.3972 36.4497 44.4435 36.9241 44.4666 37.4795C44.4898 38.0348 44.5476 38.4861 44.5939 38.4861C44.7906 38.4977 45.3344 38.0811 45.2766 37.9538C45.2534 37.8729 45.1609 37.8266 45.0683 37.8613C44.8716 37.9423 44.779 37.5489 44.779 36.6001C44.779 36.172 44.7443 35.8249 44.698 35.8249C44.6402 35.8249 44.3509 35.9869 44.0269 36.1836Z" fill="#333232"/>
<path d="M27.1451 36.1257C26.8443 36.415 26.9253 36.8315 27.3766 37.3291C27.8162 37.8034 27.8394 38.139 27.446 38.139C27.1451 38.139 26.8443 37.7803 26.8443 37.41C26.8443 37.0166 26.5782 37.0051 26.4046 37.3869C26.2311 37.7803 26.2311 37.9076 26.4162 37.9076C26.5088 37.9076 26.6939 38.0349 26.8443 38.1968C27.1451 38.5092 27.7352 38.5902 27.9782 38.3473C28.2443 38.0811 28.1286 37.5836 27.7121 37.1092C27.2956 36.6464 27.2261 36.4728 27.4228 36.3456C27.6195 36.2183 27.9782 36.5075 28.1055 36.8894C28.2443 37.2596 28.2559 37.2596 28.4179 37.0514C28.6609 36.7042 28.6262 36.577 28.1402 36.2414C27.6311 35.8943 27.3997 35.8712 27.1451 36.1257Z" fill="#333232"/>
<path d="M28.8577 36.8777C28.8114 36.9471 28.8346 37.0396 28.8924 37.0859C29.0775 37.2016 28.4759 38.7174 28.2792 38.6364C28.1866 38.6017 28.1172 38.6479 28.1172 38.7637C28.1172 38.9372 28.661 39.2959 28.9271 39.2959C29.0775 39.2959 29.0775 38.9835 28.9271 38.9256C28.7767 38.8794 29.3668 37.3289 29.5288 37.3636C29.5982 37.3752 29.6676 37.3289 29.6908 37.2595C29.7602 37.0859 28.9618 36.7272 28.8577 36.8777Z" fill="#333232"/>
<path d="M42.2565 37.1321C41.7821 37.3751 41.759 37.3982 41.8284 37.7916C41.8631 38.0115 41.921 38.2776 41.9557 38.3933C42.0136 38.6016 42.3491 38.7751 42.3491 38.6016C42.3491 38.5437 42.4764 38.4049 42.6384 38.3007C42.8698 38.1503 42.9623 38.1388 43.1012 38.2545C43.3673 38.4743 43.3095 38.8098 42.9855 39.0181C42.7194 39.1917 42.6731 39.1917 42.4879 39.0297C42.3607 38.9024 42.2334 38.8793 42.1177 38.9487C41.9788 39.0297 41.9904 39.0875 42.164 39.2842C42.4648 39.6082 42.8351 39.5851 43.2632 39.2264C43.6913 38.8677 43.7376 38.3702 43.3904 38.023C43.1128 37.7454 42.8351 37.7338 42.4995 37.9652C42.2681 38.1272 42.245 38.1272 42.1755 37.9073C42.1408 37.7801 42.1293 37.6297 42.164 37.5718C42.2565 37.433 42.6962 37.3288 42.6962 37.4561C42.6962 37.5139 42.7772 37.5602 42.8698 37.5602C43.0549 37.5602 43.0896 37.3635 42.9739 37.0511C42.8813 36.8197 42.8698 36.8197 42.2565 37.1321Z" fill="#333232"/>
<path d="M29.8991 37.3406C29.8644 37.41 29.876 37.5142 29.9339 37.572C30.0843 37.7224 29.6214 39.1803 29.4363 39.1803C29.1008 39.1803 29.1702 39.4349 29.552 39.5853C29.7719 39.6779 29.9801 39.7589 30.0033 39.7589C30.0264 39.7589 30.038 39.5159 30.0496 39.2035C30.0496 38.9026 30.119 38.4977 30.2 38.3125C30.3388 37.9654 30.3504 37.977 30.6165 38.9952C30.8479 39.9208 31.0099 40.2101 31.2645 40.2217C31.357 40.2217 31.519 39.6547 31.6579 38.9142C31.6926 38.6712 31.8083 38.4051 31.8893 38.3125C32.1323 38.0696 32.086 37.9423 31.7389 37.8729C31.357 37.8034 31.195 37.8844 31.3455 38.058C31.4149 38.1506 31.4033 38.4167 31.3107 38.8332C31.1488 39.5622 31.114 39.5274 30.8364 38.3935C30.6628 37.6877 30.5818 37.5257 30.3041 37.3869C30.0843 37.2712 29.957 37.2481 29.8991 37.3406Z" fill="#333232"/>
<path d="M40.3704 37.8378C39.815 38.1155 39.7919 39.0759 40.3241 39.3189C40.5439 39.423 40.6596 39.3999 40.9026 39.2494C41.2729 39.0065 41.3654 39.0643 41.2613 39.4693C41.1687 39.8511 40.9142 39.9437 40.5439 39.7586C40.2315 39.585 40.1158 39.6428 40.22 39.9205C40.3125 40.1751 40.7985 40.2792 41.1456 40.1172C41.701 39.8743 41.7704 38.937 41.3076 38.1734C41.0646 37.7684 40.7406 37.6527 40.3704 37.8378ZM40.972 38.3238C41.1687 38.5668 40.972 38.8908 40.6018 38.8908C40.3241 38.8908 40.1853 38.6246 40.3125 38.3007C40.3935 38.0808 40.7754 38.0924 40.972 38.3238Z" fill="#333232"/>
<path d="M32.5951 38.37C32.3174 38.5435 32.0513 39.0989 32.0513 39.5386C32.0513 39.7932 32.167 40.013 32.4447 40.2907C32.7802 40.6262 32.9191 40.6841 33.3703 40.6841C33.7984 40.6841 33.972 40.6262 34.2034 40.3948C34.4464 40.1518 34.4695 40.0593 34.3654 39.932C34.2381 39.7816 34.1802 39.7932 33.9488 40.0477C33.4166 40.6262 32.5141 40.2791 32.5141 39.4923C32.5141 38.6245 33.3587 38.2774 33.972 38.8907C34.3654 39.284 34.4811 39.2493 34.4811 38.7865C34.4811 38.4625 34.4348 38.3931 34.2265 38.3815C34.0761 38.3815 33.7059 38.3468 33.3819 38.3121C33.0579 38.2774 32.7108 38.3006 32.5951 38.37Z" fill="#333232"/>
<path d="M38.3687 38.3587C38.3225 38.4165 38.3687 38.5091 38.4613 38.5669C38.6811 38.6826 38.8778 40.1058 38.7159 40.3719C38.5539 40.6265 38.658 40.6959 39.0861 40.6149C39.4448 40.5455 39.5952 40.2909 39.3291 40.1984C39.2712 40.1752 39.144 39.7471 39.0745 39.238C38.9473 38.4397 38.8894 38.3124 38.6811 38.2777C38.5423 38.2545 38.4035 38.2892 38.3687 38.3587Z" fill="#333232"/>
<path d="M34.9437 38.6595C34.9437 38.7521 35.0015 38.8331 35.071 38.8331C35.2445 38.8331 35.1172 40.291 34.9321 40.5224C34.7123 40.7885 34.909 40.8579 35.904 40.8579H36.8528V40.5224C36.8528 40.1174 36.5751 39.9786 36.4826 40.3257C36.4363 40.5224 36.3321 40.5686 35.9735 40.5686C35.5338 40.5686 35.5222 40.5571 35.5222 40.1637C35.5222 39.7703 35.5338 39.7587 35.9966 39.7587C36.5983 39.7587 36.552 39.481 35.9503 39.4347C35.5801 39.4 35.5222 39.3537 35.5222 39.1108C35.5222 38.8678 35.5685 38.8331 35.985 38.8331C36.3206 38.8331 36.4478 38.8794 36.4478 39.0066C36.4478 39.0992 36.5288 39.1802 36.6214 39.1802C36.7371 39.1802 36.795 39.0645 36.795 38.8331V38.486H35.8693C35.1288 38.486 34.9437 38.5207 34.9437 38.6595Z" fill="#333232"/>
<path d="M11.4902 51.9888C11.3745 52.0235 11.3398 52.7524 11.3398 55.0434C11.3398 56.9641 11.2935 58.0402 11.2241 58.0402C11.1547 58.0402 11.1084 57.6236 11.1084 57.022C11.1084 56.3856 11.0621 55.9575 10.9695 55.8649C10.7844 55.6798 9.18767 55.6798 9.0604 55.8649C9.01411 55.9459 8.9794 56.455 8.96783 56.9988V57.9823L8.43559 58.017C7.92649 58.0517 7.89177 58.0286 7.82235 57.7278C7.71822 57.2997 7.02398 56.293 6.63059 56.0038C6.17934 55.6682 5.57767 55.3674 5.03386 55.1938C4.70988 55.0897 4.65203 55.0434 4.83716 55.0434C5.21898 55.0318 5.78594 54.4302 5.78594 54.0483C5.78594 53.3541 4.80244 52.8334 4.14293 53.1921C3.98094 53.2847 3.8768 53.2847 3.78424 53.1921C3.62225 53.0301 2.95116 53.0301 2.67347 53.1805C2.38421 53.331 2.1528 53.9211 2.24536 54.2797C2.34949 54.6847 2.76603 55.0318 3.171 55.0434C3.48341 55.0434 3.46026 55.0665 2.99744 55.1938C1.85196 55.4946 0.787474 56.3971 0.313082 57.4501C0.0469604 58.0517 -0.0918858 59.7179 0.104813 60.0072C0.208948 60.1576 0.833756 60.1807 4.33962 60.2154L8.45873 60.2501L8.2736 60.5047C7.69508 61.3262 8.56286 62.3444 9.53479 61.9973C9.81248 61.8931 9.99761 61.8931 10.2753 61.9973C10.7613 62.1824 11.2125 62.0204 11.4902 61.5345C11.6985 61.1758 11.71 61.1179 11.5365 60.6898L11.3629 60.2386H12.2191C13.6308 60.2386 13.5498 60.4931 13.515 55.9459C13.4803 52.7062 13.4572 52.1161 13.3068 52.0235C13.1332 51.9078 11.7448 51.8846 11.4902 51.9888ZM13.0754 56.0153V59.7757H6.70001H0.313082L0.370935 58.9195C0.47507 57.3922 1.1693 56.374 2.53462 55.7492C4.47847 54.8583 7.08184 56.0616 7.5678 58.0633C7.63722 58.3757 7.66036 58.3873 8.50501 58.3873H9.3728V57.2302V56.0732H10.067H10.7613V57.2302V58.3873H11.2241H11.6869V55.3211V52.2549H12.3811H13.0754V56.0153ZM3.78424 53.7128C3.9578 53.9905 3.9578 54.0483 3.80738 54.326C3.49498 54.8814 2.54619 54.6963 2.54619 54.0715C2.54619 53.4235 3.42555 53.1805 3.78424 53.7128ZM5.2537 53.6665C5.49668 54.0136 5.48511 54.1756 5.20741 54.4533C4.59418 55.0665 3.65696 54.2682 4.24706 53.6202C4.51318 53.331 5.03386 53.3541 5.2537 53.6665ZM4.16607 54.9161C4.30491 55.0087 4.2702 55.0318 4.01565 55.0318C3.83052 55.0318 3.71482 54.9855 3.7611 54.9161C3.85366 54.7773 3.94623 54.7773 4.16607 54.9161ZM9.58107 60.6088C9.66206 60.6898 9.71992 60.9212 9.71992 61.1295C9.71992 61.4303 9.65049 61.546 9.41908 61.6502C8.79427 61.9394 8.14633 61.1295 8.62072 60.6551C8.84056 60.4353 9.38437 60.4121 9.58107 60.6088ZM11.1894 60.8171C11.3051 61.0485 11.3051 61.1526 11.1778 61.3262C10.9117 61.7427 10.6803 61.8237 10.3216 61.627C9.97447 61.4303 9.87033 61.0716 10.067 60.7014C10.2637 60.3427 10.9927 60.4121 11.1894 60.8171Z" fill="#333232"/>
<path d="M3.33308 56.883C2.87026 57.0219 2.36115 57.4153 2.09503 57.855C1.95619 58.0632 1.85205 58.2715 1.85205 58.3178C1.85205 58.3525 2.8124 58.3872 3.9926 58.3872C5.17279 58.3872 6.13314 58.3641 6.13314 58.3294C6.13314 58.2831 6.05215 58.1095 5.95959 57.936C5.50834 57.045 4.32814 56.5822 3.33308 56.883ZM5.05709 57.4731C5.25378 57.6004 5.45048 57.774 5.48519 57.8665C5.54305 58.017 5.31164 58.0401 3.95789 58.0401H2.37272L2.73141 57.6814C3.30994 57.1029 4.28186 57.0219 5.05709 57.4731Z" fill="#333232"/>
<path d="M65.8948 54.9507C65.6749 55.1243 65.6633 55.321 65.5592 62.7724L65.4551 70.4205H64.7956H64.136L64.0666 69.9461C63.8468 68.2915 61.8335 66.0816 59.6582 65.0981C57.5061 64.1262 54.7986 64.2187 52.9821 65.3295L52.4382 65.665L52.4035 61.9856C52.3688 59.0814 52.3225 58.2715 52.1953 58.1211C52.068 57.9591 51.8134 57.9244 50.7952 57.9244C48.8629 57.9244 49.0712 57.2186 48.9671 64.265C48.8977 69.3329 48.8629 70.2122 48.7125 70.3048C48.62 70.3627 48.2613 70.4205 47.9373 70.4205H47.3241V68.8816C47.3241 66.8915 47.3819 66.9494 45.5653 66.9494C44.6281 66.9494 44.1885 66.9956 44.1075 67.0998C44.0265 67.1808 43.9686 68.2453 43.9455 69.842L43.9108 72.4454L43.0545 74.0652C40.833 78.2769 40.7173 78.5315 40.752 78.8439L40.7867 79.1563L42.2909 79.191C43.124 79.2025 43.9108 79.191 44.0496 79.1563C44.3273 79.0868 44.5471 78.7166 46.1207 75.662L47.1505 73.6603L57.8532 73.6371L68.556 73.6024L68.6717 73.3131C68.8568 72.8503 68.718 55.2053 68.5213 55.0086C68.2898 54.7772 66.1956 54.7309 65.8948 54.9507ZM68.2898 55.4251C68.3361 55.4945 68.3708 59.5327 68.3477 64.4038L68.3246 73.2553L57.7375 73.2206C51.9176 73.1974 47.0927 73.2206 47.0117 73.2784C46.9422 73.3363 46.2711 74.5396 45.5306 75.9744C44.7786 77.4091 44.119 78.6472 44.0612 78.7166C43.9223 78.8901 41.076 78.9364 41.076 78.7629C41.076 78.705 41.7934 77.305 42.6611 75.662L44.2579 72.6768L44.3157 70.0155L44.3736 67.3543L45.6232 67.3196L46.8612 67.2849L46.8728 67.6089C46.8844 67.7824 46.9191 68.5577 46.9654 69.3213L47.0348 70.7098L47.9952 70.7445C48.5505 70.7676 49.0249 70.7214 49.1059 70.6635C49.2216 70.5709 49.2679 69.0899 49.3373 64.4964C49.372 61.1757 49.4415 58.4335 49.4762 58.3987C49.5109 58.364 50.0663 58.3293 50.7142 58.3293H51.8944L51.9638 59.7178C52.0101 60.4814 52.0448 62.298 52.0564 63.7443L52.068 66.3824L52.5655 66.0469C54.6135 64.6353 56.8697 64.3923 59.207 65.3295C61.7294 66.3361 63.2798 68.0717 63.8005 70.4437C63.8699 70.7561 63.8931 70.7676 64.7146 70.7676C65.1658 70.7676 65.6055 70.7214 65.6749 70.6751C65.7675 70.6172 65.8253 68.8932 65.8832 64.6931C65.9179 61.4418 65.9873 57.9706 66.022 56.964L66.0914 55.1359L67.1559 55.2169C67.7345 55.2631 68.2436 55.3557 68.2898 55.4251Z" fill="#333232"/>
<path d="M54.8797 67.5284C53.6763 67.9565 52.797 68.778 52.2879 69.935C51.8945 70.8491 51.5589 70.7797 56.4764 70.7681C61.3592 70.745 61.1277 70.7913 60.8848 69.9698C60.5839 68.9747 59.4616 67.9912 58.1078 67.5399C57.1938 67.2275 55.7359 67.2275 54.8797 67.5284ZM57.6913 67.8061C58.5591 68.0375 59.4385 68.5466 59.936 69.1135C60.341 69.5764 60.6071 70.1433 60.4682 70.2706C60.3872 70.3631 52.5309 70.4673 52.5309 70.3747C52.5309 70.1664 53.04 69.3218 53.4218 68.9053C54.3821 67.8408 56.1409 67.3895 57.6913 67.8061Z" fill="#333232"/>
<path d="M25.6756 55.1822C24.6921 55.4599 23.616 56.2814 23.0606 57.1839C22.9449 57.3691 22.9218 57.2881 22.9218 56.698C22.9102 56.2352 22.8524 55.9343 22.7482 55.8533C22.6441 55.7608 22.2507 55.7261 21.6722 55.7492L20.7697 55.7839L20.735 56.9063C20.7234 57.5311 20.654 58.0402 20.5961 58.0402C20.5383 58.0402 20.4688 57.5311 20.4573 56.9063L20.4226 55.7839L19.5779 55.7492C19.0457 55.7261 18.6638 55.7723 18.5597 55.8533C18.444 55.9459 18.3977 56.2699 18.3977 56.9872C18.3862 57.936 18.3862 57.9707 18.2357 57.5658C17.7729 56.2467 16.4192 55.3789 14.8571 55.3789C14.0935 55.3789 13.9778 55.5178 14.0241 56.4319C14.0588 57.2418 14.1166 57.2996 14.9613 57.4038C15.2968 57.4501 15.6324 57.5773 15.8291 57.7509L16.1415 58.0286L15.0423 58.0402C14.3365 58.0402 13.8852 58.0864 13.7927 58.179C13.7117 58.26 13.6538 58.6418 13.6538 59.0931C13.6538 60.2154 13.6885 60.2386 16.0373 60.2386H17.9118L17.7382 60.6898C17.5646 61.1179 17.5762 61.1758 17.7845 61.5345C18.0622 62.0204 18.5019 62.1824 19.011 61.9973C19.3002 61.8931 19.4738 61.8931 19.7399 61.9973C20.7003 62.356 21.5796 61.3262 21.0011 60.5047L20.816 60.2501L25.6293 60.2154C29.7484 60.1807 30.4542 60.1576 30.5583 60.0072C30.6162 59.9146 30.6509 59.3939 30.6393 58.8501C30.6046 58.0286 30.5352 57.7625 30.2575 57.2534C29.3666 55.6219 27.3533 54.7079 25.6756 55.1822ZM28.1748 55.7723C29.4939 56.374 30.2112 57.4038 30.2922 58.8732L30.3501 59.7757H22.1697H14.0009V59.0815V58.3873H15.3315C16.2225 58.3873 16.6621 58.341 16.6621 58.26C16.6621 57.9823 16.1415 57.4269 15.6902 57.2187C15.4241 57.103 15.0191 56.9988 14.7877 56.9988H14.348V56.3509V55.6913L15.1001 55.7492C16.558 55.8765 17.6456 56.6864 17.9696 57.8897C18.0853 58.3294 18.1432 58.3873 18.4209 58.3873H18.7448V57.2302V56.0732H19.4391H20.1333V57.2302V58.3873H20.5961H21.0589V57.2302V56.0732H21.811H22.5631V57.2418C22.5631 58.3757 22.5747 58.3988 22.8177 58.3641C22.9912 58.341 23.0954 58.2137 23.1648 57.936C23.3846 57.103 24.0904 56.3046 25.0161 55.8302C25.9996 55.3327 27.145 55.3095 28.1748 55.7723ZM19.2077 60.6898C19.4044 61.0601 19.3349 61.384 19.0341 61.5807C18.3746 62.0089 17.6803 61.2336 18.1895 60.6088C18.3862 60.3774 19.0688 60.4353 19.2077 60.6898ZM20.654 60.6551C21.1284 61.1295 20.4804 61.9394 19.8556 61.6502C19.6242 61.546 19.5548 61.4303 19.5548 61.1295C19.5548 60.9212 19.6126 60.6898 19.6936 60.6088C19.8903 60.4121 20.4341 60.4353 20.654 60.6551Z" fill="#333232"/>
<path d="M26.2083 56.7673C25.41 56.9409 24.8083 57.4616 24.6 58.1211L24.519 58.3872H26.6596C29.0315 58.3872 29.02 58.3872 28.5456 57.6814C28.0828 56.9987 27.0183 56.5822 26.2083 56.7673ZM27.6199 57.3343C27.8861 57.4616 28.1522 57.6698 28.2332 57.7971C28.3605 58.0401 28.3489 58.0401 26.6596 58.0401H24.9587L25.1786 57.7971C25.7918 57.1029 26.7174 56.9293 27.6199 57.3343Z" fill="#333232"/>
<path d="M69.9448 58.272C69.7134 58.5265 69.7134 58.7117 69.6787 67.4011C69.6671 72.2723 69.6787 76.3798 69.7134 76.5303C69.8059 76.9005 70.1762 77.0047 71.5184 77.0278C72.5481 77.0394 72.7217 77.0162 72.8721 76.8311C73.011 76.646 73.0225 75.3154 72.9763 67.54C72.9184 60.2853 72.8837 58.434 72.7564 58.3183C72.6638 58.2257 72.12 58.1447 71.3911 58.0984C70.234 58.0174 70.1646 58.029 69.9448 58.272ZM72.4556 58.6075C72.5019 58.6422 72.5597 62.7151 72.5713 67.6441L72.606 76.6113L71.9696 76.646C71.6225 76.6691 71.0555 76.6575 70.7316 76.6113L70.1183 76.5418V67.5284C70.1183 60.4357 70.153 58.515 70.2688 58.4687C70.4539 58.3993 72.3514 58.515 72.4556 58.6075Z" fill="#333232"/>
<path d="M35.1174 59.7409C34.6777 59.8566 34.2727 60.2384 34.076 60.7244C33.7289 61.6037 34.1107 62.5062 34.9901 62.8418C35.719 63.1195 36.2628 63.0038 36.8182 62.4368C37.2232 62.0318 37.2579 61.9508 37.2579 61.3607C37.2579 60.7938 37.2116 60.6549 36.8992 60.3078C36.448 59.7871 35.7885 59.5789 35.1174 59.7409ZM36.5521 60.4814C36.8182 60.7359 36.9108 60.9442 36.9108 61.2335C36.9108 62.0665 36.4364 62.5409 35.6033 62.5525C35.1405 62.5525 34.9901 62.4946 34.7008 62.217C34.4231 61.9393 34.3653 61.7773 34.3653 61.3376C34.3653 60.8979 34.4231 60.7359 34.7008 60.4582C34.9901 60.1805 35.1405 60.1227 35.6149 60.1227C36.1124 60.1227 36.2513 60.1805 36.5521 60.4814Z" fill="#333232"/>
<path d="M37.6741 62.8997C36.6559 63.2121 36.1931 64.6353 36.8642 65.4453C37.4659 66.1511 38.2411 66.3246 38.9932 65.9196C40.2428 65.2601 40.2197 63.6402 38.9469 63.027C38.4262 62.7725 38.2064 62.7493 37.6741 62.8997ZM38.97 63.432C39.6064 63.8717 39.7221 64.8089 39.1899 65.3064C38.2758 66.1626 36.9105 65.6304 36.9105 64.4155C36.9105 64.1378 37.0146 63.9295 37.3039 63.6402C37.6279 63.3163 37.7783 63.2469 38.2064 63.2469C38.4841 63.2469 38.8312 63.3278 38.97 63.432Z" fill="#333232"/>
<path d="M33.127 63.1198C31.8658 63.7099 31.8543 65.4224 33.0923 66.0472C33.8675 66.4406 34.77 66.1976 35.256 65.4571C36.1701 64.0918 34.6312 62.414 33.127 63.1198ZM34.5965 63.5826C34.7585 63.6984 34.9552 63.9992 35.0477 64.2422C35.1866 64.6471 35.1866 64.7513 35.013 65.1215C34.5849 66.0125 33.532 66.1282 32.8609 65.3645C32.5369 65.0058 32.5022 64.8785 32.5485 64.4967C32.6873 63.4669 33.7402 62.9926 34.5965 63.5826Z" fill="#333232"/>
<path d="M11.8258 64.3116C11.7333 64.4041 11.687 64.9711 11.687 66.0819V67.7133L9.29189 69.148C7.97285 69.9464 6.79266 70.6869 6.67695 70.8026C6.5034 70.9762 6.48025 71.1845 6.5034 72.3068C6.54968 73.9614 6.41083 73.892 9.29189 73.892C10.4837 73.892 11.4556 73.9267 11.4556 73.9614C11.4556 73.9961 11.2936 74.2506 11.1085 74.5283C10.044 76.0788 7.69516 77.016 6.17942 76.5069C5.02237 76.1135 4.13144 75.2226 3.34464 73.6837C3.13637 73.2787 2.85868 72.8969 2.74298 72.8275C2.45371 72.6771 0.359448 72.8043 0.151179 72.9895C-0.253789 73.3134 0.209031 75.4424 0.926404 76.5532C1.81733 77.9416 3.8306 79.2491 5.67032 79.6309C6.86208 79.8855 8.89849 79.7929 10.0093 79.4458C12.3349 78.7169 13.9895 77.097 14.8805 74.6788C15.0309 74.2969 15.0656 73.7763 15.054 72.4456C15.0424 70.5134 15.0077 70.4439 14.2672 70.3051L13.8275 70.2357L14.3019 69.9811C14.568 69.8539 14.811 69.6572 14.8573 69.553C14.9962 69.1828 14.9383 64.462 14.7879 64.3116C14.6953 64.219 14.1978 64.1727 13.3069 64.1727C12.4159 64.1727 11.9184 64.219 11.8258 64.3116ZM14.5218 67.0075V69.4257L13.5151 70.0043C12.9482 70.3282 12.4969 70.6291 12.4969 70.6985C12.4969 70.7564 12.8903 70.7795 13.4688 70.7332C14.2325 70.6754 14.4755 70.6985 14.5796 70.8258C14.6722 70.9415 14.7069 71.5084 14.6722 72.7002L14.6375 74.4126L14.1284 75.454C13.7234 76.2755 13.4341 76.6805 12.7399 77.3747C11.3052 78.8094 9.83571 79.3648 7.46375 79.3764C6.31827 79.388 5.92487 79.3417 5.2075 79.1218C3.47192 78.5665 2.09503 77.6408 1.33137 76.4953C0.856981 75.7664 0.347878 74.3085 0.347878 73.649V73.2324L1.4008 73.163C1.97932 73.1167 2.49999 73.1052 2.55785 73.1399C2.60413 73.1746 2.84711 73.5796 3.09009 74.0424C3.63391 75.0606 4.64054 76.1714 5.45048 76.611C6.60753 77.2358 8.25054 77.1201 9.67372 76.3102C10.7151 75.7201 12.2539 73.8341 11.9531 73.5333C11.8953 73.4754 10.7382 73.4176 9.37288 73.406L6.88522 73.3713L6.85051 72.2605C6.82737 71.3233 6.85051 71.1266 7.02407 70.9762C7.13977 70.8836 8.2274 70.2125 9.43074 69.4952C10.6456 68.7778 11.7217 68.1067 11.8374 68.0141C12.011 67.8637 12.0341 67.6207 12.0341 66.2554C12.0341 65.3876 12.0688 64.6355 12.1151 64.5893C12.1614 64.543 12.7168 64.5314 13.3531 64.543L14.5218 64.5777V67.0075Z" fill="#333232"/>
<path d="M21.1748 65.9546C19.4624 66.4521 17.7037 68.0026 17.2409 69.4257C17.021 70.0968 17.0789 73.3134 17.3103 73.5448C17.4491 73.6837 18.0508 73.73 20.7699 73.7763L24.0559 73.8341L22.841 76.0904C21.7187 78.1962 21.4988 78.7631 21.7302 78.9136C21.9501 79.0524 24.5303 79.0177 24.6923 78.8789C24.7848 78.7979 25.4444 77.6177 26.1617 76.2639L27.4692 73.7763L34.6314 73.7531C41.5621 73.7184 41.7935 73.7068 41.9555 73.4986C42.0828 73.3134 42.1175 72.6771 42.1175 70.2935C42.1175 67.7364 42.0943 67.2852 41.9324 67.1348C41.7935 66.9844 41.4811 66.9496 40.4976 66.9496C38.8662 66.9496 38.8777 66.9265 38.8777 68.8819V70.3051H38.3108H37.7554L37.686 69.3447C37.6397 68.8241 37.605 68.153 37.605 67.8521C37.605 67.0306 37.4661 66.9496 35.9851 66.9496C34.3537 66.9496 34.3652 66.9265 34.3652 68.8819V70.3051H33.8561C33.3702 70.3051 33.347 70.2935 33.2776 69.8654C33.2429 69.634 33.2082 68.9398 33.2082 68.3265C33.2082 67.6323 33.1619 67.1811 33.0693 67.0885C32.8726 66.8918 30.4197 66.8918 30.223 67.0885C30.1304 67.1811 30.0841 67.748 30.0841 68.8472V70.4787L28.9618 70.4555L27.8395 70.4439L27.5965 69.7613C27.0527 68.1761 25.9303 66.7877 24.6923 66.186C24.1022 65.8967 23.8592 65.8504 22.8526 65.8273C22.1583 65.8157 21.4872 65.862 21.1748 65.9546ZM24.6113 66.591C25.8262 67.2389 26.6824 68.3265 27.2956 69.9927L27.6081 70.8258L28.7535 70.8605C30.5701 70.9183 30.4313 71.0688 30.4313 69.0208V67.2852L31.623 67.3199L32.8032 67.3546L32.8379 68.9166C32.8611 70.0621 32.9074 70.5134 33.0231 70.5944C33.266 70.7795 34.6429 70.6291 34.6776 70.4208C34.6892 70.3282 34.7355 69.5762 34.7702 68.7662L34.8512 67.2852L36.0314 67.3199L37.2 67.3546L37.281 68.9051C37.3389 69.7613 37.4199 70.5134 37.4777 70.5828C37.5934 70.7216 38.9934 70.7448 39.2017 70.6059C39.2943 70.5481 39.3406 70.0043 39.3406 68.9051V67.2852L40.5323 67.3199L41.7125 67.3546V70.3051V73.2556L34.4809 73.3134C30.5007 73.3481 27.2378 73.3829 27.2262 73.406C27.2147 73.4176 26.6708 74.4589 26.0229 75.7085C24.3683 78.9251 24.646 78.6359 23.1881 78.6359C22.5286 78.6359 21.9848 78.6012 21.9848 78.5664C21.9848 78.5202 22.5864 77.3747 23.3154 76.0209C24.0559 74.6556 24.6229 73.487 24.5881 73.4291C24.5419 73.3597 23.165 73.3134 20.9897 73.3134H17.4723V71.5431C17.4723 69.796 17.4723 69.7497 17.8194 69.0555C18.2244 68.2571 19.1963 67.2968 20.0988 66.8108C21.0013 66.3133 21.7996 66.1397 22.9104 66.1744C23.7666 66.2091 23.9865 66.2554 24.6113 66.591Z" fill="#333232"/>
<path d="M21.8457 68.6156C21.1515 68.8007 20.5383 69.2751 20.249 69.8421C19.9482 70.4322 19.9597 70.6405 20.2837 70.6983C20.7928 70.814 24.8888 70.8487 24.9466 70.7446C24.9813 70.6867 24.8309 70.3165 24.6111 69.9231C23.9863 68.7892 23.0144 68.3263 21.8457 68.6156ZM23.6507 69.3098C24.0094 69.576 24.4144 70.1429 24.4144 70.3628C24.4144 70.4438 21.6722 70.4322 21.0127 70.3512C20.7234 70.3049 20.4804 70.2355 20.4804 70.1776C20.4804 69.9925 21.1052 69.3561 21.5102 69.1363C22.1234 68.8123 23.0954 68.8817 23.6507 69.3098Z" fill="#333232"/>
<path d="M15.6095 76.183C15.2277 76.5416 15.1235 76.7152 15.0772 77.1433C14.8921 78.7863 16.9285 79.6078 18.0509 78.3351C18.3286 78.0111 18.398 77.826 18.398 77.4094C18.398 76.3565 17.7732 75.7433 16.6855 75.7433C16.1417 75.7433 16.026 75.7896 15.6095 76.183ZM17.6575 76.4838C18.8839 77.7103 17.0442 79.3417 15.7715 78.1499C14.9847 77.421 15.6211 76.0904 16.7665 76.0904C17.1831 76.0904 17.3335 76.1598 17.6575 76.4838Z" fill="#333232"/>
</svg>
