<svg width="60" height="61" viewBox="0 0 60 61" fill="none" xmlns="http://www.w3.org/2000/svg">
<path d="M23.4375 13.625H9.375C8.38044 13.625 7.42661 14.0201 6.72335 14.7233C6.02009 15.4266 5.625 16.3804 5.625 17.375V32.375C5.625 33.3696 6.02009 34.3234 6.72335 35.0266C7.42661 35.7299 8.38044 36.125 9.375 36.125H23.4375V38C23.4375 39.9891 22.6473 41.8968 21.2408 43.3033C19.8343 44.7098 17.9266 45.5 15.9375 45.5C15.4402 45.5 14.9633 45.6975 14.6117 46.0492C14.26 46.4008 14.0625 46.8777 14.0625 47.375C14.0625 47.8723 14.26 48.3492 14.6117 48.7008C14.9633 49.0525 15.4402 49.25 15.9375 49.25C18.9202 49.2469 21.7799 48.0606 23.889 45.9515C25.9981 43.8424 27.1844 40.9827 27.1875 38V17.375C27.1875 16.3804 26.7924 15.4266 26.0891 14.7233C25.3859 14.0201 24.4321 13.625 23.4375 13.625ZM23.4375 32.375H9.375V17.375H23.4375V32.375ZM50.625 13.625H36.5625C35.5679 13.625 34.6141 14.0201 33.9109 14.7233C33.2076 15.4266 32.8125 16.3804 32.8125 17.375V32.375C32.8125 33.3696 33.2076 34.3234 33.9109 35.0266C34.6141 35.7299 35.5679 36.125 36.5625 36.125H50.625V38C50.625 39.9891 49.8348 41.8968 48.4283 43.3033C47.0218 44.7098 45.1141 45.5 43.125 45.5C42.6277 45.5 42.1508 45.6975 41.7992 46.0492C41.4475 46.4008 41.25 46.8777 41.25 47.375C41.25 47.8723 41.4475 48.3492 41.7992 48.7008C42.1508 49.0525 42.6277 49.25 43.125 49.25C46.1077 49.2469 48.9674 48.0606 51.0765 45.9515C53.1856 43.8424 54.3719 40.9827 54.375 38V17.375C54.375 16.3804 53.9799 15.4266 53.2766 14.7233C52.5734 14.0201 51.6196 13.625 50.625 13.625ZM50.625 32.375H36.5625V17.375H50.625V32.375Z" fill="#F0F0F0"/>
</svg>
